<?xml version="1.0" standalone="no"?> <!DOCTYPE svg PUBLIC "-//W3C//DTD SVG 1.0//EN" "http://www.w3.org/TR/2001/REC-SVG-20010904/DTD/svg10.dtd" > <svg xmlns="http://www.w3.org/2000/svg" width="100%" height="100%">
<defs >
<font id="AndikaBasic" horiz-adv-x="1125" ><font-face
    font-family="Andika Basic"
    units-per-em="2048"
    panose-1="2 0 0 0 0 0 0 0 0 0"
    ascent="2030"
    descent="-490"
    alphabetic="0" />
<missing-glyph horiz-adv-x="748" d="M68 0V1365H612V0H68ZM136 68H544V1297H136V68Z" />
<glyph unicode=" " glyph-name="space" horiz-adv-x="550" />
<glyph unicode="!" glyph-name="exclam" horiz-adv-x="764" d="M225 110Q225 138 235 162T264 205T307 234T360 245Q388 245 412 235T455 206T484 163T495 110Q495 82 485 58T456 15T413 -14T360 -25Q332 -25 308 -15T265 14T236 57T225 110ZM275 440Q272 549
271 668T267 921T256 1200T235 1510H490Q475 1347 468 1201T458 921T453 669T450 440H275Z" />
<glyph unicode="&quot;" glyph-name="quotedbl" horiz-adv-x="1025" d="M620 1045Q618 1098 616 1154T610 1276T599 1417T580 1585H785Q774 1493 767 1417T756 1276T750 1155T745 1045H620ZM280 1045Q278 1098 276 1154T270 1276T259 1417T240 1585H445Q434 1493
427 1417T416 1276T410 1155T405 1045H280Z" />
<glyph unicode="#" glyph-name="numbersign" horiz-adv-x="1200" d="M427 725H702L769 960H494L427 725ZM84 1110H387L487 1460H637L537 1110H812L912 1460H1062L962 1110H1175V960H919L852 725H1116V575H809L702 200H552L659 575H384L277 200H127L234 575H25V725H277L344
960H84V1110Z" />
<glyph unicode="$" glyph-name="dollar" horiz-adv-x="1200" d="M365 1030Q365 998 372 972T399 923T456 878T553 834V1222Q510 1214 476 1195T417 1151T379 1094T365 1030ZM871 396Q871 425 864 451T837 503T780 553T683 603V174Q723 185 757 204T816 252T856
316T871 396ZM949 1127Q871 1170 809 1193T683 1224V791Q771 764 838 730T952 649T1022 545T1046 414Q1046 333 1018 265T942 145T827 57T683 8V-220H553V0Q491 2 433 12T324 38T230 76T153 124L195 313Q279 239 369 203T553 162V649Q545 651 540 653Q432 685 364
724T258 808T205 906T190 1017Q190 1071 210 1131T275 1243T388 1335T553 1385V1600H683V1387Q766 1382 837 1363T986 1306L949 1127Z" />
<glyph unicode="%" glyph-name="percent" horiz-adv-x="1526" d="M690 1089Q690 978 668 901T606 776T511 707T390 685Q324 685 271 706T179 775T121 897T100 1078Q100 1184 122 1260T184 1385T279 1457T399 1480Q465 1480 518 1458T610 1387T669 1265T690 1089ZM525
1076Q525 1151 518 1201T494 1283T453 1327T394 1340Q361 1340 337 1327T297 1285T273 1208T265 1091Q265 1016 272 965T296 883T336 839T394 825Q426 825 450 838T491 881T516 959T525 1076ZM1239 1480L459 -25H291L1073 1480H1239ZM1426 379Q1426 268 1404 191T1342
66T1247 -3T1126 -25Q1060 -25 1007 -4T915 65T857 187T836 368Q836 474 858 550T920 675T1015 747T1135 770Q1201 770 1254 748T1346 677T1405 555T1426 379ZM1261 366Q1261 441 1254 491T1230 573T1189 617T1130 630Q1097 630 1073 617T1033 575T1009 498T1001
381Q1001 306 1008 255T1032 173T1072 129T1130 115Q1162 115 1186 128T1227 171T1252 249T1261 366Z" />
<glyph unicode="&amp;" glyph-name="ampersand" horiz-adv-x="1222" d="M315 1200Q315 1146 354 1082T453 939Q537 1023 583 1087T630 1205Q630 1238 617 1265T583 1311T533 1340T475 1350Q446 1350 418 1340T366 1310T329 1262T315 1200ZM535 570Q509 605 484
639T432 706Q377 656 339 613T276 531T241 455T230 380Q230 338 245 297T288 223T359 170T455 150Q486 150 521 160T593 188T667 230T741 284Q695 346 644 417T535 570ZM490 1485Q547 1485 601 1466T697 1411T764 1321T790 1200Q790 1158 773 1112T723 1016T647
916T551 814Q576 782 600 749T650 680Q708 595 759 524T857 393Q898 438 928 483T975 570L1080 435Q1062 399 1032 355T959 265Q1031 181 1084 134T1175 70Q1161 58 1141 42T1100 11T1058 -14T1025 -25Q1004 -25 958 21T843 153Q799 116 750 84T650 27T545 -11T440
-25Q356 -25 286 6T164 91T84 218T55 375Q55 431 71 483T122 589T210 701T337 828Q299 877 266 924T208 1016T169 1104T155 1190Q155 1273 185 1329T263 1420T370 1470T490 1485Z" />
<glyph unicode="&apos;" glyph-name="quotesingle" horiz-adv-x="605" d="M240 1045Q238 1098 236 1154T230 1276T219 1417T200 1585H405Q394 1493 387 1417T376 1276T370 1155T365 1045H240Z" />
<glyph unicode="(" glyph-name="parenleft" horiz-adv-x="795" d="M115 625Q115 789 146 940T235 1223T374 1460T555 1640L630 1485Q542 1408 480 1315T379 1112T323 881T305 625Q305 495 322 376T379 146T480 -66T630 -265L535 -410Q329 -196 222 62T115 625Z" />
<glyph unicode=")" glyph-name="parenright" horiz-adv-x="795" d="M680 625Q680 320 573 62T260 -410L165 -265Q249 -169 310 -67T412 146T471 375T490 625Q490 751 471 872T412 1104T311 1311T165 1485L240 1640Q339 1566 420 1460T559 1223T648 941T680 625Z" />
<glyph unicode="*" glyph-name="asterisk" horiz-adv-x="1028" d="M560 1600Q555 1550 552 1509T546 1433T542 1365T540 1300Q568 1318 595 1336T651 1376T713 1423T785 1480L855 1355Q809 1334 772 1316T703 1282T642 1251T585 1220Q614 1205 644 1191T707 1163T779
1134T865 1100L790 975Q749 1004 716 1027T652 1069T595 1106T540 1140Q541 1107 543 1075T549 1007T557 931T570 840H430Q434 890 437 931T443 1008T447 1076T450 1140Q423 1123 396 1104T340 1064T277 1017T205 960L135 1085L217 1123Q255 1141 287 1157T347
1188T405 1220Q376 1235 346 1249T283 1277T211 1306T125 1340L200 1465Q241 1436 274 1413T338 1370T395 1333T450 1300Q449 1333 446 1365T439 1432T428 1509T415 1600H560Z" />
<glyph unicode="+" glyph-name="plus" horiz-adv-x="1200" d="M155 810H525V1180H675V810H1045V660H675V285H525V660H155V810Z" />
<glyph unicode="," glyph-name="comma" horiz-adv-x="650" d="M185 150Q190 174 203 192T236 223T277 243T320 250Q350 250 376 239T422 206T453 154T465 85Q465 -7 422 -97T290 -270L190 -230Q212 -208 235 -176T279 -107T312 -29T325 50H185V150Z" />
<glyph unicode="-" glyph-name="hyphen" horiz-adv-x="860" d="M80 705H780V555H80V705Z" />
<glyph unicode="." glyph-name="period" horiz-adv-x="640" d="M185 110Q185 138 195 162T224 205T267 234T320 245Q348 245 372 235T415 206T444 163T455 110Q455 82 445 58T416 15T373 -14T320 -25Q292 -25 268 -15T225 14T196 57T185 110Z" />
<glyph unicode="/" glyph-name="slash" horiz-adv-x="1000" d="M990 1600L160 -245H10L840 1600H990Z" />
<glyph unicode="0" glyph-name="zero" horiz-adv-x="1200" d="M1110 740Q1110 519 1070 372T959 137T794 12T590 -25Q482 -25 390 12T232 135T128 365T90 720Q90 931 130 1077T241 1313T407 1444T610 1485Q719 1485 810 1446T968 1318T1072 1087T1110 740ZM910
715Q910 880 890 994T831 1180T734 1283T600 1315Q528 1315 471 1284T373 1183T312 1006T290 745Q290 580 310 466T370 280T468 177T600 145Q672 145 729 177T827 277T888 454T910 715Z" />
<glyph unicode="1" glyph-name="one" horiz-adv-x="1200" d="M535 1260L235 1088L210 1268L555 1480H725V170H1040V0H220V170H535V1260Z" />
<glyph unicode="2" glyph-name="two" horiz-adv-x="1200" d="M1080 0H120V170Q188 219 265 283T419 422T566 576T691 738T777 897T810 1045Q810 1115 786 1164T721 1245T630 1291T525 1305Q479 1305 430 1292T335 1253T246 1194T170 1120L125 1290Q155 1332 203
1367T309 1429T432 1470T560 1485Q650 1485 731 1456T875 1372T973 1240T1010 1065Q1010 981 980 895T898 724T782 559T648 407T512 274T390 165H645Q719 165 785 165T906 167T1006 172T1080 180V0Z" />
<glyph unicode="3" glyph-name="three" horiz-adv-x="1200" d="M545 -25Q411 -25 300 20T110 140L135 355Q176 309 223 271T323 206T437 165T565 150Q622 150 681 167T787 218T865 304T895 425Q895 486 864 536T776 623T644 680T480 700H410V870H480Q555 870 622
891T739 946T820 1024T850 1115Q850 1166 827 1202T766 1263T682 1298T590 1310Q532 1310 482 1302T387 1276T300 1228T215 1155L180 1325Q210 1359 253 1388T347 1439T458 1473T580 1485Q673 1485 756 1461T903 1393T1003 1284T1040 1140Q1040 1071 1010 1014T934
912T830 840T720 800Q755 794 796 781T879 747T958 694T1025 621T1072 526T1090 405Q1090 317 1046 239T926 102T752 9T545 -25Z" />
<glyph unicode="4" glyph-name="four" horiz-adv-x="1200" d="M263 550H745V1230L263 550ZM935 395V0H745V395H90V550L745 1480H935V550H1125V395H935Z" />
<glyph unicode="5" glyph-name="five" horiz-adv-x="1200" d="M195 1460H1000V1270Q943 1282 886 1286T765 1290H380V920Q403 923 446 926T545 930Q653 930 746 897T910 803T1020 659T1060 475Q1060 358 1020 265T907 108T735 9T518 -25Q460 -25 410 -20T313 -2T222
31T130 80L160 290Q210 249 254 223T342 182T431 161T530 155Q605 155 667 176T775 237T845 335T870 470Q870 546 836 599T750 685T634 734T510 750Q470 750 434 747T360 736T282 716T195 685V1460Z" />
<glyph unicode="6" glyph-name="six" horiz-adv-x="1200" d="M645 720Q540 720 455 683T307 581Q313 495 335 417T398 280T496 186T630 150Q696 150 749 172T841 232T899 323T920 435Q920 501 902 554T850 643T764 700T645 720ZM1115 470Q1115 356 1078 265T973
109T810 10T600 -25Q484 -25 393 23T239 163T143 385T110 680Q110 772 122 867T164 1052T239 1221T354 1358T514 1451T725 1485Q769 1485 808 1481T884 1467T957 1439T1033 1395L989 1200Q924 1264 856 1287T715 1310Q632 1310 561 1279T435 1179T348 1000T307
733Q381 806 469 850T665 895Q769 895 852 864T994 776T1084 642T1115 470Z" />
<glyph unicode="7" glyph-name="seven" horiz-adv-x="1200" d="M275 0Q316 141 358 265T444 502T537 716T637 915T748 1105T870 1295H480Q339 1295 248 1291T100 1275V1460H1090V1300Q868 996 713 670T460 0H275Z" />
<glyph unicode="8" glyph-name="eight" horiz-adv-x="1200" d="M910 425Q910 488 887 540T822 630T724 689T600 710Q532 710 476 689T378 630T313 540T290 425Q290 359 313 307T377 219T475 164T600 145Q667 145 723 164T821 219T886 307T910 425ZM860 1105Q860
1160 840 1201T784 1270T701 1311T600 1325Q546 1325 499 1312T417 1271T361 1202T340 1105Q340 1046 360 1002T416 927T499 881T600 865Q654 865 701 880T783 926T839 1001T860 1105ZM600 -25Q504 -25 413 4T249 88T134 223T90 405Q90 482 112 543T171 651T255
733T350 795Q321 811 286 836T221 898T171 986T150 1105Q150 1197 189 1268T294 1387T441 1460T610 1485Q696 1485 775 1460T916 1387T1013 1268T1050 1105Q1050 1037 1031 987T982 901T918 839T855 795Q896 774 941 740T1023 657T1085 545T1110 405Q1110 303 1067
224T952 89T788 4T600 -25Z" />
<glyph unicode="9" glyph-name="nine" horiz-adv-x="1200" d="M583 760Q633 760 680 771T769 803T848 852T914 915Q906 994 885 1066T825 1192T731 1278T596 1310Q530 1310 477 1290T385 1233T327 1147T306 1036Q306 970 327 919T385 832T472 779T583 760ZM112
1002Q112 1116 153 1205T263 1357T424 1452T616 1485Q732 1485 824 1434T981 1289T1080 1067T1114 780Q1114 688 1102 593T1061 408T986 239T871 102T712 9T501 -25Q457 -25 418 -21T342 -7T269 21T193 65L237 260Q269 228 302 207T370 173T440 155T511 150Q596
150 668 182T793 285T879 470T917 748Q845 676 753 631T559 586Q455 586 372 619T231 708T143 840T112 1002Z" />
<glyph unicode=":" glyph-name="colon" horiz-adv-x="640" d="M185 110Q185 138 195 162T224 205T267 234T320 245Q348 245 372 235T415 206T444 163T455 110Q455 82 445 58T416 15T373 -14T320 -25Q292 -25 268 -15T225 14T196 57T185 110ZM185 790Q185 818 195
842T224 885T267 914T320 925Q348 925 372 915T415 886T444 843T455 790Q455 762 445 738T416 695T373 666T320 655Q292 655 268 665T225 694T196 737T185 790Z" />
<glyph unicode=";" glyph-name="semicolon" horiz-adv-x="650" d="M185 150Q190 174 203 192T236 223T277 243T320 250Q350 250 376 239T422 206T453 154T465 85Q465 -7 422 -97T290 -270L190 -230Q212 -208 235 -176T279 -107T312 -29T325 50H185V150ZM185 790Q185
818 195 842T224 885T267 914T320 925Q348 925 372 915T415 886T444 843T455 790Q455 762 445 738T416 695T373 666T320 655Q292 655 268 665T225 694T196 737T185 790Z" />
<glyph unicode="&lt;" glyph-name="less" horiz-adv-x="1200" d="M1080 245L100 645V815L1080 1215V1035L290 730L1080 425V245Z" />
<glyph unicode="=" glyph-name="equal" horiz-adv-x="1200" d="M120 980H1080V830H120V980ZM120 630H1080V480H120V630Z" />
<glyph unicode="&gt;" glyph-name="greater" horiz-adv-x="1200" d="M120 1215L1100 815V645L120 245V425L910 730L120 1035V1215Z" />
<glyph unicode="?" glyph-name="question" horiz-adv-x="1050" d="M315 110Q315 138 325 162T354 205T397 234T450 245Q478 245 502 235T545 206T574 163T585 110Q585 82 575 58T546 15T503 -14T450 -25Q422 -25 398 -15T355 14T326 57T315 110ZM460 1540Q549
1540 618 1519T734 1458T805 1364T830 1240Q830 1194 817 1154T781 1076T728 1002T665 927Q626 882 602 840T564 744T545 618T540 440H355Q355 549 363 631T387 776T427 889T485 980Q518 1022 544 1056T588 1120T615 1176T625 1230Q625 1252 616 1276T584 1319T524
1352T432 1365Q372 1365 307 1338T185 1251L140 1430Q165 1454 200 1474T278 1508T366 1531T460 1540Z" />
<glyph unicode="@" glyph-name="at" horiz-adv-x="1702" d="M848 903Q822 903 796 897T745 877T696 839T651 779Q629 742 616 687T603 573Q603 507 615 459T648 380T695 335T748 320Q782 320 821 341T898 396T970 476T1025 570V871Q1000 883 952 893T848 903ZM1607
698Q1607 573 1576 477T1493 315T1378 215T1248 181Q1202 181 1170 196T1115 239T1074 302T1041 380Q1010 340 975 305T901 242T821 199T735 183Q685 183 635 204T544 269T478 378T453 533Q453 626 474 701T530 836Q592 938 674 989T880 1040Q910 1040 947 1036T1024
1023T1102 1004T1174 980V630Q1174 532 1182 472T1204 377T1237 330T1278 318Q1303 318 1335 339T1396 404T1443 514T1463 669Q1463 793 1426 902T1313 1093T1127 1222T868 1269Q745 1269 632 1221T431 1086T291 875T239 603Q239 441 288 312T423 93T623 -46T868
-95Q938 -95 1008 -75T1145 -9L1250 -118Q1212 -144 1165 -165T1067 -202T962 -225T857 -233Q710 -233 573 -181T330 -27T159 225T95 574Q95 712 124 827T206 1034T332 1197T492 1313T677 1383T880 1407Q1040 1407 1173 1357T1403 1213T1553 989T1607 698Z" />
<glyph unicode="A" glyph-name="A" horiz-adv-x="1395" d="M433 540H940L685 1265L433 540ZM994 385H379L245 0H40Q53 30 67 63T97 137T134 232T180 355L580 1460H795L1195 355Q1220 285 1240 232T1277 138T1308 63T1335 0H1130L994 385Z" />
<glyph unicode="B" glyph-name="B" horiz-adv-x="1285" d="M1140 420Q1140 329 1111 251T1017 114T851 23T605 -10Q528 -10 450 -9T306 -5Q230 -3 160 0Q166 30 169 77T173 183T175 311V1143Q175 1213 174 1273T169 1382T160 1460Q193 1462 242 1464T349 1467T472
1469T600 1470Q711 1470 798 1452T944 1393T1034 1285T1065 1120Q1065 1057 1046 1007T994 917T916 848T820 800Q878 785 935 759T1037 688T1111 579T1140 420ZM365 155Q379 154 403 153T459 152T529 151T610 150Q674 150 734 163T841 207T916 290T945 420Q945
559 861 629T600 700H365V155ZM365 855H560Q640 855 698 872T795 920T851 994T870 1090Q870 1146 855 1188T806 1258T719 1301T590 1315Q561 1315 528 1315T464 1313T407 1312T365 1310V855Z" />
<glyph unicode="C" glyph-name="C" horiz-adv-x="1355" d="M1230 140Q1186 99 1127 69T1004 17T873 -14T750 -25Q598 -25 477 26T271 173T141 405T95 710Q95 903 151 1048T300 1291T516 1436T770 1485Q824 1485 880 1478T992 1455T1105 1412T1215 1345L1155 1165Q1108
1207 1059 1236T961 1282T864 1307T770 1315Q665 1315 577 1279T426 1169T326 988T290 735Q290 619 321 513T412 327T559 198T760 150Q817 150 875 163T990 200T1097 259T1190 335L1230 140Z" />
<glyph unicode="D" glyph-name="D" horiz-adv-x="1435" d="M175 455V1143Q175 1213 174 1273T169 1382T160 1460Q181 1461 213 1462T285 1465T368 1467T455 1468T540 1469T615 1470Q655 1470 706 1466T814 1448T930 1412T1045 1350T1150 1258T1235 1130T1293 960T1315
740Q1315 591 1282 478T1194 281T1065 142T912 52T750 4T595 -10Q571 -10 540 -10T473 -9T401 -7T329 -5Q247 -3 160 0Q166 30 168 77T172 183T174 311T175 455ZM365 165Q400 162 456 159T585 155Q652 155 717 168T842 209T953 283T1041 390T1099 535T1120 720Q1120
888 1078 1001T963 1182T795 1280T590 1310Q565 1310 534 1310T472 1308T412 1307T365 1305V165Z" />
<glyph unicode="E" glyph-name="E" horiz-adv-x="1160" d="M935 845V685H365V165H629Q778 165 879 167T1040 180V0H160Q171 60 173 173T175 435V1025Q175 1173 173 1286T160 1460H1010V1295H365V845H935Z" />
<glyph unicode="F" glyph-name="F" horiz-adv-x="1150" d="M945 835V675H365V435Q365 286 367 173T380 0H160Q171 60 173 173T175 435V1160Q175 1227 174 1283T169 1385T160 1460H1030V1295H365V835H945Z" />
<glyph unicode="G" glyph-name="G" horiz-adv-x="1420" d="M1275 155Q1198 101 1130 66T998 11T872 -17T745 -25Q603 -25 484 24T279 168T144 401T95 720Q95 900 148 1042T295 1282T513 1433T783 1485Q844 1485 901 1480T1016 1459T1134 1417T1260 1345L1195 1165Q1139
1210 1087 1239T983 1285T883 1308T783 1315Q669 1315 578 1275T422 1161T324 982T290 745Q290 607 322 497T416 310T563 191T757 150Q802 150 841 154T920 170T999 199T1085 245V580H735V745H1275V155Z" />
<glyph unicode="H" glyph-name="H" horiz-adv-x="1475" d="M1085 0V675H365V0H160Q171 60 173 173T175 435V1025Q175 1173 173 1286T160 1460H365V835H1085V1460H1290Q1279 1400 1277 1287T1275 1025V435Q1275 287 1277 174T1290 0H1085Z" />
<glyph unicode="I" glyph-name="I" horiz-adv-x="975" d="M815 1460V1315H570V145H815V0H140V145H380V1315H140V1460H815Z" />
<glyph unicode="J" glyph-name="J" horiz-adv-x="965" d="M345 -25Q309 -25 267 -19T181 2T100 38T35 90L80 275Q105 246 136 224T200 186T269 163T340 155Q395 155 441 174T520 234T571 337T590 485V980Q590 1053 590 1122T588 1253T583 1367T575 1460H780V535Q780
379 748 272T659 99T521 4T345 -25Z" />
<glyph unicode="K" glyph-name="K" horiz-adv-x="1310" d="M365 787L925 1460H1165L559 773L1230 0H985L365 717V0H160Q171 60 173 173T175 435V1025Q175 1173 173 1286T160 1460H365V787Z" />
<glyph unicode="L" glyph-name="L" horiz-adv-x="1080" d="M589 165Q663 165 729 165T851 167T951 172T1025 180V0H160Q171 60 173 173T175 435V1025Q175 1173 173 1286T160 1460H365V165H589Z" />
<glyph unicode="M" glyph-name="M" horiz-adv-x="1795" d="M455 1460L885 205L1320 1460H1540Q1552 1103 1564 804Q1567 719 1571 634T1579 467T1587 312T1594 177T1602 71T1610 0H1425L1397 1198L985 0H790L376 1195L345 0H160Q163 25 167 70T174 177T182 311T190
466T197 633T205 804Q217 1103 230 1460H455Z" />
<glyph unicode="N" glyph-name="N" horiz-adv-x="1500" d="M340 1152V0H160Q171 60 173 173T175 435V1025Q175 1173 173 1286T160 1460H340L1135 303V1460H1315Q1310 1430 1307 1386T1303 1287T1301 1165T1300 1025V0H1135L340 1152Z" />
<glyph unicode="O" glyph-name="O" horiz-adv-x="1460" d="M1340 740Q1340 560 1287 418T1145 178T943 27T710 -25Q589 -25 478 24T282 168T146 401T95 720Q95 840 119 943T187 1131T291 1282T421 1393T570 1461T730 1485Q849 1485 959 1436T1154 1292T1289 1059T1340
740ZM1145 715Q1145 853 1115 963T1028 1151T894 1269T720 1310Q625 1310 546 1271T410 1158T322 980T290 745Q290 608 320 498T407 311T543 192T720 150Q812 150 890 188T1024 299T1113 477T1145 715Z" />
<glyph unicode="P" glyph-name="P" horiz-adv-x="1195" d="M365 435Q365 286 367 173T380 0H160Q171 60 173 173T175 435V1143Q175 1213 174 1273T169 1382T160 1460Q223 1462 293 1465Q353 1467 428 1468T585 1470Q706 1470 804 1443T971 1360T1077 1222T1115
1030Q1115 920 1079 832T974 683T807 588T585 555Q530 555 472 557T365 565V435ZM365 720Q413 714 463 712T570 710Q675 710 743 734T852 799T909 895T925 1010Q925 1070 908 1124T850 1220T742 1285T575 1310Q540 1310 512 1310T460 1309T413 1307T365 1305V720Z"
/>
<glyph unicode="Q" glyph-name="Q" horiz-adv-x="1475" d="M1145 715Q1145 853 1115 963T1028 1151T894 1269T720 1310Q625 1310 546 1271T410 1158T322 980T290 745Q290 608 320 498T407 311T543 192T720 150Q812 150 890 188T1024 299T1113 477T1145 715ZM1340
740Q1340 642 1324 549T1276 374T1195 223T1080 105Q1174 47 1264 8T1455 -45Q1446 -59 1432 -83T1399 -131T1361 -172T1320 -190Q1299 -190 1263 -176T1183 -141T1092 -95T1003 -49T926 -14T875 0Q832 -14 792 -19T705 -25Q584 -25 474 24T279 168T145 401T95
720Q95 840 119 943T187 1131T291 1282T421 1393T570 1461T730 1485Q851 1485 961 1436T1156 1292T1290 1059T1340 740Z" />
<glyph unicode="R" glyph-name="R" horiz-adv-x="1305" d="M365 435Q365 361 365 295T367 173T372 73T380 0H160Q171 60 173 173T175 435V1143Q175 1213 174 1273T169 1382T160 1460Q212 1462 275 1465Q329 1467 403 1468T565 1470Q682 1470 778 1447T944 1374T1051
1246T1090 1060Q1090 969 1062 899T987 779T881 695T761 645Q791 604 834 545T927 419T1027 284T1122 157T1199 57T1245 0H990L568 625H365V435ZM365 780H555Q725 780 812 850T900 1045Q900 1109 881 1158T820 1241T713 1292T555 1310Q502 1310 454 1309T365 1305V780Z"
/>
<glyph unicode="S" glyph-name="S" horiz-adv-x="1175" d="M960 1200Q906 1230 861 1250T772 1284T686 1304T595 1310Q535 1310 486 1292T400 1244T345 1175T325 1095Q325 1054 336 1021T383 958T483 900T655 840Q754 811 830 773T959 684T1038 570T1065 425Q1065
324 1026 242T918 100T758 8T565 -25Q493 -25 425 -15T296 13T184 55T95 110L140 315Q240 228 346 189T565 150Q625 150 681 167T780 216T849 296T875 405Q875 444 863 479T812 549T703 616T515 685Q398 720 324 762T208 853T151 959T135 1080Q135 1144 161 1215T245
1346T391 1445T605 1485Q663 1485 713 1480T811 1464T905 1436T1000 1395L960 1200Z" />
<glyph unicode="T" glyph-name="T" horiz-adv-x="1265" d="M1200 1460V1275Q1140 1288 1082 1291T955 1295H715V435Q715 287 718 174T735 0H505Q518 60 521 173T525 435V1295H290Q223 1295 164 1292T45 1275V1460H1200Z" />
<glyph unicode="U" glyph-name="U" horiz-adv-x="1440" d="M1255 1460Q1245 1400 1243 1291T1240 1025V515Q1240 393 1208 294T1111 123T945 14T710 -25Q573 -25 473 13T306 123T208 293T175 515V1025Q175 1173 173 1286T160 1460H365V560Q365 462 382 384T439
250T545 165T710 135Q807 135 872 164T976 249T1033 383T1050 560V1460H1255Z" />
<glyph unicode="V" glyph-name="V" horiz-adv-x="1365" d="M1095 1460H1310Q1296 1429 1282 1396T1252 1320T1215 1223T1170 1095L785 0H560L170 1095Q144 1167 125 1221T89 1319T60 1395T35 1460H250L672 195L1095 1460Z" />
<glyph unicode="W" glyph-name="W" horiz-adv-x="2080" d="M1484 186L1795 1460H2015Q2003 1429 1991 1396T1966 1320T1936 1223T1900 1095L1595 0H1370L1027 1176L685 0H460L155 1095Q135 1167 119 1221T90 1319T64 1396T40 1460H260L576 186L935 1460H1120L1484 186Z" />
<glyph unicode="X" glyph-name="X" horiz-adv-x="1325" d="M642 614L270 0H40Q64 32 84 60T128 124T184 211T265 340L537 781L330 1110Q282 1187 248 1239T186 1330T137 1398T90 1460H325L656 934L975 1460H1210Q1187 1431 1165 1402T1115 1333T1054 1240T972
1110L761 767L1033 336Q1082 258 1115 207T1173 121T1217 58T1260 0H1030L642 614Z" />
<glyph unicode="Y" glyph-name="Y" horiz-adv-x="1320" d="M265 1460L660 799L1035 1460H1265Q1221 1397 1187 1346T1125 1248T1070 1158T1015 1065L745 603V435Q745 287 747 174T760 0H540Q551 60 553 173T555 435V611L290 1065Q261 1114 234 1161T176 1256T112
1354T35 1460H265Z" />
<glyph unicode="Z" glyph-name="Z" horiz-adv-x="1230" d="M1105 1330L310 165H700Q847 165 961 169T1135 185V0H75V125L870 1295H530Q456 1295 397 1295T289 1292T203 1285T135 1275V1460H1105V1330Z" />
<glyph unicode="[" glyph-name="bracketleft" horiz-adv-x="790" d="M200 -410V1600H640V1450H385V-260H640V-410H200Z" />
<glyph unicode="\" glyph-name="backslash" horiz-adv-x="1025" d="M360 1600L830 -85L685 -115L210 1570L360 1600Z" />
<glyph unicode="]" glyph-name="bracketright" horiz-adv-x="790" d="M150 -410V-260H405V1450H150V1600H590V-410H150Z" />
<glyph unicode="^" glyph-name="asciicircum" horiz-adv-x="1120" d="M95 850L475 1600H645L1025 850H845L560 1430L275 850H95Z" />
<glyph unicode="_" glyph-name="underscore" horiz-adv-x="1274" d="M0 -170H1274V-335H0V-170Z" />
<glyph unicode="`" glyph-name="grave" horiz-adv-x="580" d="M230 1600L580 1170H420L0 1600H230Z" />
<glyph unicode="a" glyph-name="a.SngStory" horiz-adv-x="1150" d="M595 870Q563 870 531 863T467 837T406 790T350 715Q323 669 307 601T290 460Q290 377 305 318T346 220T404 163T470 145Q512 145 561 171T658 240T746 339T815 455V830Q800 837 777 844T725
857T663 866T595 870ZM1000 530Q1000 341 1021 213T1075 0H900Q895 13 886 36T868 88T850 152T835 220Q796 170 753 126T661 48T561 -5T455 -25Q392 -25 330 2T217 83T136 218T105 410Q105 525 130 618T200 785Q239 849 283 897T379 976T495 1024T635 1040Q673
1040 719 1035T814 1019T911 995T1000 965V530Z" />
<glyph unicode="b" glyph-name="b" horiz-adv-x="1155" d="M145 65V1248Q145 1312 144 1376T139 1499T130 1600H330V825Q365 871 406 910T494 978T597 1023T715 1040Q791 1040 854 1003T963 900T1034 741T1060 540Q1060 411 1026 307T928 129T776 15T575 -25Q514
-25 457 -17T347 5T243 34T145 65ZM575 130Q641 130 697 157T793 233T857 351T880 505Q880 588 865 655T822 768T751 840T655 865Q608 865 561 845T472 787T392 699T330 585V185Q367 170 397 160T457 143T514 133T575 130Z" />
<glyph unicode="c" glyph-name="c" horiz-adv-x="1020" d="M615 1040Q715 1040 787 1017T915 955L880 775Q812 825 745 850T600 875Q533 875 476 850T376 776T309 658T285 500Q285 419 307 353T370 240T469 166T600 140Q691 140 765 171T905 260L925 85Q887 56
850 36T771 2T683 -18T580 -25Q479 -25 391 10T237 113T133 275T95 490Q95 603 131 703T235 878T399 996T615 1040Z" />
<glyph unicode="d" glyph-name="d" horiz-adv-x="1190" d="M580 870Q523 870 471 844T379 769T314 650T290 490Q290 315 349 225T540 135Q586 135 631 158T717 218T791 302T845 400V795Q808 815 776 829T713 852T650 865T580 870ZM1030 530Q1030 341 1051 213T1105
0H925Q914 26 899 77T870 185Q798 83 707 29T505 -25Q413 -25 340 9T214 107T133 260T105 460Q105 593 141 700T242 882T392 999T580 1040Q612 1040 646 1033T715 1014T783 987T845 955V1235Q845 1356 840 1446T820 1600H1030V530Z" />
<glyph unicode="e" glyph-name="e" horiz-adv-x="1095" d="M575 1040Q657 1040 720 1021T829 967T906 886T955 787T982 677T990 563V524Q990 499 989 485H280Q283 397 307 332T374 225T474 161T600 140Q697 140 790 162T975 240L995 75Q942 48 891 29T789 -2T686
-19T575 -25Q479 -25 392 8T239 107T134 270T95 495Q95 619 128 719T224 891T375 1001T575 1040ZM560 890Q450 890 380 826T288 625H810Q810 689 792 738T740 822T660 873T560 890Z" />
<glyph unicode="f" glyph-name="f" horiz-adv-x="750" d="M40 995H240V1170Q240 1395 331 1507T585 1620Q644 1620 701 1602T805 1550L759 1400Q721 1428 675 1444T585 1460Q546 1460 516 1447T466 1403T436 1326T425 1210V995H695V850H425V494Q425 421 426 350T431
214T441 94T455 0H240V850H40V995Z" />
<glyph unicode="g" glyph-name="g.SngBowl" d="M595 870Q513 870 455 837T361 749T307 625T290 485Q290 392 304 331T344 233T404 181T480 165Q518 165 561 180T647 225T731 297T805 395V830Q781 839 754 846T699 859T645 867T595 870ZM990 25Q990 -107 952 -201T851
-354T708 -442T545 -470Q449 -470 355 -437T180 -350L245 -195Q316 -246 388 -278T535 -310Q574 -310 621 -296T709 -248T777 -155T805 -10V175Q766 126 723 92T635 36T546 5T460 -5Q391 -5 327 19T214 95T135 232T105 435Q105 550 135 659T228 852T389 988T625
1040Q670 1040 717 1034T812 1016T904 992T990 965V25Z" />
<glyph unicode="h" glyph-name="h" horiz-adv-x="1175" d="M710 1040Q870 1040 955 936T1040 625V0H855V550Q855 644 843 705T805 801T743 851T655 865Q601 865 550 840T455 774T379 682T330 580V0H145V1130Q145 1292 143 1413T130 1600H330V830Q404 935 504 987T710
1040Z" />
<glyph unicode="i" glyph-name="i" horiz-adv-x="565" d="M155 1345Q155 1373 164 1397T189 1440T229 1469T280 1480Q308 1480 332 1470T373 1441T400 1398T410 1345Q410 1317 400 1293T373 1250T332 1221T280 1210Q252 1210 229 1220T190 1249T164 1292T155 1345ZM375
475Q375 427 376 362T380 229T386 101T395 0H190V530Q190 603 190 674T188 808T183 926T175 1020H375V475Z" />
<glyph unicode="j" glyph-name="j" horiz-adv-x="595" d="M185 1345Q185 1373 194 1397T219 1440T259 1469T310 1480Q338 1480 362 1470T403 1441T430 1398T440 1345Q440 1317 430 1293T403 1250T362 1221T310 1210Q282 1210 259 1220T220 1249T194 1292T185 1345ZM405
25Q405 -115 379 -210T303 -362T185 -445T30 -470Q9 -470 -19 -466T-78 -453T-138 -433T-190 -405L-155 -240Q-139 -252 -114 -263T-62 -282T-8 -295T40 -300Q80 -300 113 -285T170 -236T207 -151T220 -25V530Q220 603 220 674T218 808T213 926T205 1020H405V25Z"
/>
<glyph unicode="k" glyph-name="k" horiz-adv-x="1035" d="M145 0V1130Q145 1292 143 1413T130 1600H330V601L735 1020H985L490 573L1015 0H770L330 520V0H145Z" />
<glyph unicode="l" glyph-name="l" horiz-adv-x="565" d="M375 475Q375 427 376 362T380 230T386 102T395 0H190V1130Q190 1276 185 1394T170 1600H375V475Z" />
<glyph unicode="m" glyph-name="m" horiz-adv-x="1685" d="M945 0H760V570Q760 663 753 720T730 810T685 854T615 865Q578 865 541 850T471 808T409 743T360 660V0H175V615Q175 763 158 865T125 1020H305Q316 988 324 945T337 865Q383 918 425 952T508 1005T591
1032T675 1040Q724 1040 764 1026T834 989T887 936T921 872Q968 923 1012 955T1098 1006T1180 1032T1260 1040Q1336 1040 1388 1016T1471 943T1516 824T1530 660V0H1345V550Q1345 647 1338 708T1315 804T1270 852T1200 865Q1163 865 1127 851T1058 810T996 745T945
660V0Z" />
<glyph unicode="n" glyph-name="n" horiz-adv-x="1185" d="M719 1040Q879 1040 964 936T1049 625V0H864V550Q864 644 852 705T815 801T753 851T664 865Q610 865 559 840T464 774T388 682T339 580V0H154V615Q154 763 138 865T104 1020H284Q290 1004 296 979T307
925T316 870L324 825Q419 939 516 989T719 1040Z" />
<glyph unicode="o" glyph-name="o" horiz-adv-x="1140" d="M280 505Q280 418 301 349T360 233T452 160T570 135Q630 135 683 160T775 232T837 349T860 505Q860 593 839 662T780 780T688 854T570 880Q509 880 456 855T364 781T303 663T280 505ZM95 505Q95 634 134
733T239 901T393 1005T580 1040Q683 1040 768 1005T915 902T1011 734T1045 505Q1045 376 1006 277T901 111T747 10T560 -25Q457 -25 372 9T225 111T129 277T95 505Z" />
<glyph unicode="p" glyph-name="p" horiz-adv-x="1170" d="M620 140Q673 140 721 165T807 237T867 352T890 505Q890 588 875 655T829 770T757 844T660 870Q617 870 572 851T485 795T405 703T340 575V260Q391 224 428 201T497 164T556 145T620 140ZM155 485Q155
578 154 657T147 803T132 924T105 1020H285Q296 994 307 947T325 830Q360 876 401 915T489 981T587 1024T695 1040Q780 1040 850 1003T970 898T1047 738T1075 535Q1075 407 1039 304T942 127T797 15T620 -25Q580 -25 545 -17T476 5T409 39T340 85V-150Q340 -210
341 -258T346 -348T354 -423T365 -490H155V485Z" />
<glyph unicode="q" glyph-name="q" horiz-adv-x="1130" d="M595 870Q513 870 455 837T361 749T307 625T290 485Q290 392 310 327T364 222T438 163T520 145Q589 145 661 200T795 365V830Q750 847 696 858T595 870ZM980 -150Q980 -210 981 -258T986 -348T994 -423T1005
-490H795V140Q717 49 646 12T505 -25Q436 -25 365 2T236 85T142 229T105 435Q105 550 135 659T228 852T389 988T625 1040Q670 1040 716 1034T807 1016T895 992T980 965V-150Z" />
<glyph unicode="r" glyph-name="r" horiz-adv-x="890" d="M155 0V615Q155 763 139 865T105 1020H285Q297 992 306 950T322 855T332 744T335 625V560Q386 701 435 793T532 941T630 1018T730 1040Q768 1040 800 1033T865 1010L835 825Q806 837 784 841T730 845Q689
845 644 811T556 719T473 590T405 443T358 295T340 167Q340 142 340 121T343 81T350 42T360 0H155Z" />
<glyph unicode="s" glyph-name="s" horiz-adv-x="965" d="M515 1040Q569 1040 616 1033T703 1015T776 989T835 960L800 785Q775 800 743 816T674 847T594 870T505 880Q450 880 413 868T353 838T320 796T310 750Q310 724 318 704T351 667T424 634T550 600Q618 585
678 562T783 502T854 416T880 295Q880 227 850 169T768 68T646 0T495 -25Q434 -25 378 -16T272 9T181 46T110 90L160 270Q194 240 236 215T324 172T414 145T500 135Q544 135 580 146T643 176T685 219T700 270Q700 298 689 322T647 369T563 413T425 455Q334 477
277 507T187 573T142 651T130 740Q130 763 137 794T162 858T208 924T280 982T381 1024T515 1040Z" />
<glyph unicode="t" glyph-name="t" horiz-adv-x="835" d="M30 995H230V1320H415V995H740V850H415V390Q415 313 422 264T445 188T485 150T543 140Q586 140 640 159T760 215V55Q691 10 628 -7T512 -25Q453 -25 402 -12T313 36T252 126T230 270V850H30V995Z" />
<glyph unicode="u" glyph-name="u" horiz-adv-x="1185" d="M475 -25Q155 -25 155 405V700Q155 748 155 787T152 862T146 937T135 1020H340V465Q340 380 348 319T377 218T429 159T510 140Q554 140 604 166T699 234T782 324T840 420V700Q840 749 840 788T837 864T831
937T820 1020H1025V450Q1025 304 1041 195T1090 0H920Q913 17 905 40T890 89T876 143T865 200Q774 89 678 32T475 -25Z" />
<glyph unicode="v" glyph-name="v" horiz-adv-x="1070" d="M1050 1020Q1029 977 1007 927T964 829T925 738T895 665Q885 641 869 600T832 507T788 398T743 284Q690 152 630 0H440Q382 145 331 274Q309 329 286 386T243 495T205 592T175 665Q163 695 145 738T106
830T63 927T20 1020H230L535 200L840 1020H1050Z" />
<glyph unicode="w" glyph-name="w" horiz-adv-x="1550" d="M850 1020L1110 215L1320 1020H1505Q1487 963 1474 918T1448 831T1425 750T1400 665L1215 0H1025L775 785L525 0H335L150 665Q139 705 128 744T104 825T77 915T45 1020H230L440 215L700 1020H850Z" />
<glyph unicode="x" glyph-name="x" horiz-adv-x="1085" d="M536 376L275 0H50Q91 54 119 90T168 156T208 211T250 270L428 528L270 750Q245 785 224 813T180 870T129 934T60 1020H290L550 659L795 1020H1020Q981 970 954 935T905 870T864 812T820 750L657 510L830
270Q857 232 877 206T919 151T967 88T1035 0H805L536 376Z" />
<glyph unicode="y" glyph-name="y" horiz-adv-x="1060" d="M655 0Q603 -144 553 -235T452 -378T345 -450T225 -470Q156 -470 96 -448T-20 -385L40 -225Q56 -238 77 -251T123 -275T174 -293T225 -300Q255 -300 284 -290T342 -250T403 -167T469 -26L190 665Q162
733 125 818T30 1020H230L553 203Q572 257 594 320T641 451T689 587T735 719Q787 867 840 1020H1040Q1014 962 993 913T954 820T922 738T895 665L655 0Z" />
<glyph unicode="z" glyph-name="z" horiz-adv-x="1040" d="M930 1020V925L335 150H765Q809 150 854 152T945 165V0H105V110L680 870H290Q245 870 204 868T135 855V1020H930Z" />
<glyph unicode="{" glyph-name="braceleft" horiz-adv-x="1000" d="M210 615Q210 627 237 649T300 696T367 743T410 780Q416 788 419 840T426 967T434 1129T446 1296T465 1435T495 1515Q510 1532 545 1550T623 1584T714 1615T800 1640L840 1500Q815 1491 782 1479T718
1452T662 1424T630 1400Q624 1391 620 1360T613 1284T608 1183T605 1070T603 957T600 857T596 782T590 745Q583 731 558 713T505 675T454 640T430 615Q431 607 454 591T504 555T557 517T590 485Q594 478 596 448T600 374T603 274T605 161T608 48T612 -53T619 -130T630
-170Q637 -181 661 -194T717 -222T782 -248T840 -270L800 -410Q761 -400 714 -386T624 -355T545 -320T495 -285Q477 -265 466 -205T447 -66T435 100T427 263T420 390T410 450Q403 459 386 472T346 501T300 534T256 566T223 594T210 615Z" />
<glyph unicode="|" glyph-name="bar" horiz-adv-x="690" d="M420 1600V-390H270V1600H420Z" />
<glyph unicode="}" glyph-name="braceright" horiz-adv-x="1000" d="M790 615Q790 607 777 594T744 566T700 534T654 502T615 473T590 450Q584 442 581 390T574 263T566 101T554 -66T535 -205T505 -285Q490 -302 455 -320T377 -354T286 -385T200 -410L160 -270Q185
-261 218 -249T282 -222T338 -195T370 -170Q376 -161 380 -130T387 -54T392 47T395 160T397 273T400 373T404 448T410 485Q415 494 428 505T459 529T495 555T531 579T558 600T570 615Q569 620 558 629T531 650T496 675T459 700T429 724T410 745Q406 752 404 782T400
856T397 956T395 1069T392 1182T388 1283T381 1360T370 1400Q362 1410 338 1424T283 1452T218 1478T160 1500L200 1640Q239 1630 286 1616T376 1585T455 1550T505 1515Q523 1495 534 1435T553 1296T565 1130T573 967T580 840T590 780Q600 766 632 744T700 696T762
649T790 615Z" />
<glyph unicode="~" glyph-name="asciitilde" horiz-adv-x="1080" d="M15 520Q15 571 31 624T80 721T158 791T264 819Q309 819 382 803T569 747Q598 737 632 726T700 705T769 689T833 683Q861 683 881 690T914 710T934 745T945 795H1065Q1065 741 1050 689T1003
595T925 529T817 504Q785 504 750 510T678 525T607 545T542 566Q488 584 447 598T372 621T312 635T261 640Q230 640 207 630T167 603T143 564T135 520H15Z" />
<glyph unicode="&#xa0;" glyph-name="uni00A0" horiz-adv-x="1024" />
<glyph unicode="&#xa1;" glyph-name="exclamdown" horiz-adv-x="764" d="M227 978Q227 1006 237 1030T266 1073T308 1101T361 1112Q389 1112 413 1102T456 1073T484 1031T495 978Q495 950 485 926T456 883T414 855T361 844Q333 844 309 854T266 883T238 925T227
978ZM443 660Q445 551 447 432T453 179T465 -100T488 -410H233Q247 -247 255 -101T267 179T273 431T278 660H443Z" />
<glyph unicode="&#xa2;" glyph-name="cent" horiz-adv-x="1200" d="M386 549Q386 484 401 429T444 331T513 259T605 216V894Q557 880 517 851T448 778T402 677T386 549ZM735 1320V1061Q816 1056 876 1035T984 981L951 810Q897 849 845 872T735 902V209Q804 217
862 245T975 321L994 155Q934 110 874 85T735 53V-210H605V53Q520 63 447 101T320 202T236 349T205 540Q205 636 233 722T312 876T438 990T605 1054V1320H735Z" />
<glyph unicode="&#xa3;" glyph-name="sterling" horiz-adv-x="1200" d="M155 835H268Q264 889 262 939T260 1035Q260 1147 288 1231T369 1372T493 1457T655 1485Q684 1485 718 1480T785 1466T849 1444T903 1415L857 1265Q838 1279 813 1290T759 1309T704 1321T655
1325Q608 1325 570 1312T504 1268T461 1191T445 1075Q445 1022 448 961T456 835H765V690H468Q473 628 476 571T479 465Q479 371 457 298T376 165H579Q653 165 719 165T841 167T941 172T1015 180V0H145V130Q175 152 202 180T249 241T282 312T294 392Q294 462 290
537T279 690H155V835Z" />
<glyph unicode="&#xa5;" glyph-name="yen" horiz-adv-x="1200" d="M200 715H445L286 1012Q261 1059 238 1103T188 1193T131 1286T64 1387H265L608 759L934 1387H1135Q1096 1327 1067 1278T1012 1186T965 1100T917 1012L758 715H1008V570H682V465H1008V320H682Q682
212 684 130T695 0H504Q512 47 514 129T517 320H200V465H517V570H200V715Z" />
<glyph unicode="&#xa7;" glyph-name="section" horiz-adv-x="1024" d="M700 480Q700 508 691 536T658 596T597 661T501 735Q459 734 424 722T364 690T324 640T310 575Q310 544 320 515T354 454T419 387T522 311Q561 314 594 329T650 366T687 418T700 480ZM880
512Q880 405 829 323T690 195Q788 115 834 33T880 -140Q880 -208 850 -268T768 -373T646 -444T495 -470Q434 -470 378 -461T272 -436T181 -399T110 -355L160 -175Q194 -205 236 -230T324 -273T414 -300T500 -310Q544 -310 580 -297T643 -264T685 -217T700 -165Q700
-117 679 -76T619 4T526 84T405 170Q337 217 286 260T200 351T148 451T130 571Q130 674 182 746T320 856Q222 931 176 1001T130 1145Q130 1206 150 1266T216 1375T335 1454T515 1485Q569 1485 616 1478T703 1460T776 1434T835 1405L800 1230Q775 1245 743 1261T674
1292T594 1315T505 1325Q454 1325 417 1313T356 1282T321 1237T310 1187Q310 1149 331 1115T391 1046T484 972T605 885Q672 836 723 793T810 706T862 615T880 512Z" />
<glyph unicode="&#xa8;" glyph-name="dieresis" horiz-adv-x="675" d="M0 1345Q0 1373 9 1397T36 1440T76 1469T127 1480Q155 1480 178 1470T219 1441T245 1398T255 1345Q255 1317 246 1293T219 1250T179 1221T127 1210Q99 1210 76 1220T36 1249T10 1292T0 1345ZM420
1345Q420 1373 429 1397T456 1440T496 1469T547 1480Q575 1480 598 1470T639 1441T665 1398T675 1345Q675 1317 666 1293T639 1250T599 1221T547 1210Q519 1210 496 1220T456 1249T430 1292T420 1345Z" />
<glyph unicode="&#xa9;" glyph-name="copyright" horiz-adv-x="1515" d="M1035 375Q1007 349 973 330T902 297T825 277T750 270Q661 270 588 302T464 394T384 536T355 720Q355 835 390 924T483 1073T614 1164T765 1195Q834 1195 897 1176T1030 1105L990 985Q930
1040 877 1062T765 1085Q707 1085 655 1062T564 995T503 885T480 735Q480 669 500 606T556 494T644 415T760 385Q830 385 893 418T1010 505L1035 375ZM755 1485Q842 1485 928 1464T1094 1401T1240 1295T1358 1148T1436 960T1465 730Q1465 602 1437 497T1358 308T1241
162T1094 58T929 -4T755 -25Q665 -25 578 -5T413 57T269 161T154 307T78 497T50 730Q50 855 77 959T153 1148T268 1295T413 1400T578 1464T755 1485ZM755 1365Q643 1365 539 1324T353 1203T224 1005T175 730Q175 574 223 456T353 257T538 136T755 95Q867 95 972
136T1159 257T1290 455T1340 730Q1340 886 1291 1004T1160 1203T973 1324T755 1365Z" />
<glyph unicode="&#xaa;" glyph-name="ordfeminine" horiz-adv-x="697" d="M45 740H677V640H45V740ZM360 1375Q322 1375 282 1355T210 1280Q193 1252 184 1211T175 1125Q175 1075 184 1040T210 983T245 950T285 940Q310 940 339 955T397 996T449 1055T490 1125V1350Q472
1358 437 1366T360 1375ZM600 1170Q600 1056 612 979T645 850H540Q537 857 533 871T523 904T513 943T505 985Q482 955 456 928T400 881T339 848T275 835Q237 835 200 851T132 899T84 980T65 1095Q65 1164 79 1220T120 1320Q167 1398 230 1436T385 1475Q408 1475
435 1472T490 1462T547 1448T600 1430V1170Z" />
<glyph unicode="&#xab;" glyph-name="guillemotleft" horiz-adv-x="1300" d="M1003 0L565 512L1000 1020H1185L795 512L1185 0H1003ZM513 0L75 512L510 1020H695L305 512L695 0H513Z" />
<glyph unicode="&#xac;" glyph-name="logicalnot" horiz-adv-x="1200" d="M915 340V650H110V800H1065V340H915Z" />
<glyph unicode="&#xae;" glyph-name="registered" horiz-adv-x="1615" d="M675 767H790Q892 767 946 805T1000 915Q1000 990 951 1033T790 1076Q757 1076 729 1075T675 1072V767ZM675 548Q675 454 676 391T685 290H545Q551 328 552 391T553 548V898Q553 992 552
1062T545 1170Q575 1172 614 1175Q647 1177 692 1178T795 1180Q867 1180 927 1165T1032 1119T1100 1039T1125 925Q1125 870 1107 829T1060 757T994 709T920 680Q937 657 963 622T1019 546T1080 465T1138 388T1185 326T1215 290H1060L799 668H675V548ZM855 1365Q743
1365 639 1324T453 1203T324 1005T275 730Q275 574 323 456T453 257T638 136T855 95Q967 95 1072 136T1259 257T1390 455T1440 730Q1440 886 1391 1004T1260 1203T1073 1324T855 1365ZM855 1485Q942 1485 1028 1464T1194 1401T1340 1295T1458 1148T1536 960T1565
730Q1565 602 1537 497T1458 308T1341 162T1194 58T1029 -4T855 -25Q765 -25 678 -5T513 57T369 161T254 307T178 497T150 730Q150 855 177 959T253 1148T368 1295T513 1400T678 1464T855 1485Z" />
<glyph unicode="&#xaf;" glyph-name="overscore" horiz-adv-x="710" d="M0 1390H710V1240H0V1390Z" />
<glyph unicode="&#xb0;" glyph-name="degree" horiz-adv-x="640" d="M70 1235Q70 1287 89 1333T142 1412T221 1465T320 1485Q372 1485 418 1466T497 1413T550 1333T570 1235Q570 1182 551 1137T498 1058T418 1005T320 985Q267 985 222 1004T143 1057T90 1136T70
1235ZM455 1235Q455 1263 445 1287T416 1330T373 1359T320 1370Q292 1370 268 1360T225 1331T196 1288T185 1235Q185 1207 195 1183T224 1140T267 1111T320 1100Q348 1100 372 1110T415 1139T444 1182T455 1235Z" />
<glyph unicode="&#xb1;" glyph-name="plusminus" horiz-adv-x="1200" d="M155 350H1045V200H155V350ZM155 985H525V1365H675V985H1045V835H675V470H525V835H155V985Z" />
<glyph unicode="&#xb4;" glyph-name="acute" horiz-adv-x="0" d="M-170 1600L-590 1170H-750L-400 1600H-170Z" />
<glyph unicode="&#xb5;" glyph-name="mu" horiz-adv-x="1185" d="M920 0Q913 17 905 40T890 89T876 143T865 200Q841 162 807 123T730 50T641 -4T545 -25Q510 -25 479 -16T422 7T375 41T340 80V-150Q340 -210 341 -258T346 -348T354 -423T365 -490H155V700Q155
748 155 787T152 862T146 937T135 1020H340V465Q340 380 359 319T410 218T482 159T564 140Q601 140 643 166T723 233T793 323T840 420V700Q840 749 840 788T837 864T831 937T820 1020H1025V450Q1025 304 1041 195T1090 0H920Z" />
<glyph unicode="&#xb6;" glyph-name="paragraph" horiz-adv-x="1025" d="M850 1345V0H715V1345H555V0H420V765Q386 765 345 772T263 795T184 838T116 903T68 994T50 1113Q50 1180 68 1232T116 1322T185 1387T268 1430T356 1453T440 1460H965V1345H850Z" />
<glyph unicode="&#xb7;" glyph-name="middot" horiz-adv-x="679" d="M205 681T205 709T215 761T244 804T286 832T339 843T391 833T434 804T462 762T473 709T463 657T434 614T392 586T339 575T287 585T244 614T216 656Z" />
<glyph unicode="&#xb8;" glyph-name="cedilla" horiz-adv-x="390" d="M185 2V-95Q195 -93 205 -92T233 -90Q267 -90 296 -102T346 -137T378 -191T390 -260Q390 -311 367 -352T307 -421T225 -465T135 -480Q96 -480 64 -469T0 -440L10 -340Q32 -356 55 -363T110
-370Q132 -370 155 -365T198 -348T231 -317T245 -270Q244 -231 217 -206T148 -180Q124 -180 100 -187T60 -205V2H185Z" />
<glyph unicode="&#xba;" glyph-name="ordmasculine" horiz-adv-x="680" d="M165 1155Q165 1102 178 1061T214 990T269 946T340 930Q376 930 408 945T464 990T501 1060T515 1155Q515 1208 502 1249T466 1320T411 1364T340 1380Q304 1380 272 1365T216 1320T179
1250T165 1155ZM55 1155Q55 1233 78 1292T140 1392T233 1454T345 1475Q407 1475 458 1454T547 1393T604 1293T625 1155Q625 1078 602 1018T540 918T447 856T335 835Q273 835 222 856T134 917T76 1018T55 1155ZM45 740H635V640H45V740Z" />
<glyph unicode="&#xbb;" glyph-name="guillemotright" horiz-adv-x="1300" d="M115 0L505 512L115 1020H300L735 512L297 0H115ZM605 0L995 512L605 1020H790L1225 512L787 0H605Z" />
<glyph unicode="&#xbf;" glyph-name="questiondown" horiz-adv-x="1050" d="M662 979Q662 951 652 927T623 884T581 856T528 845Q500 845 476 855T433 884T405 926T394 979Q394 1007 404 1031T433 1074T475 1102T528 1113Q556 1113 580 1103T623 1074T651 1032T662
979ZM830 -300Q805 -324 770 -344T692 -378T604 -401T510 -410Q430 -410 363 -392T246 -336T168 -242T140 -110Q140 -71 148 -39T174 28T223 101T296 190Q326 225 348 254T386 314T411 377T426 454T433 555T435 690H610Q610 567 606 483T588 340T550 237T485 150Q437
99 410 62T368 -3T349 -55T345 -100Q345 -122 354 -146T386 -189T446 -222T538 -235Q598 -235 663 -208T785 -121L830 -300Z" />
<glyph unicode="&#xc0;" glyph-name="Agrave" horiz-adv-x="1395" d="M527 2030L877 1600H717L297 2030H527ZM433 540H940L685 1265L433 540ZM994 385H379L245 0H40Q53 30 67 63T97 137T134 232T180 355L580 1460H795L1195 355Q1220 285 1240 232T1277 138T1308
63T1335 0H1130L994 385Z" />
<glyph unicode="&#xc1;" glyph-name="Aacute" horiz-adv-x="1395" d="M1087 2030L667 1600H507L857 2030H1087ZM433 540H940L685 1265L433 540ZM994 385H379L245 0H40Q53 30 67 63T97 137T134 232T180 355L580 1460H795L1195 355Q1220 285 1240 232T1277 138T1308
63T1335 0H1130L994 385Z" />
<glyph unicode="&#xc2;" glyph-name="Acircumflex" horiz-adv-x="1395" d="M262 1600L602 2030H772L1112 1600H962L687 1880L412 1600H262ZM433 540H940L685 1265L433 540ZM994 385H379L245 0H40Q53 30 67 63T97 137T134 232T180 355L580 1460H795L1195 355Q1220
285 1240 232T1277 138T1308 63T1335 0H1130L994 385Z" />
<glyph unicode="&#xc3;" glyph-name="Atilde" horiz-adv-x="1395" d="M332 1635Q332 1681 345 1725T383 1805T443 1863T524 1885Q545 1885 565 1881T605 1870T648 1853T697 1833L746 1813Q767 1804 785 1798T820 1789T852 1785Q887 1785 909 1810T937 1870H1042Q1042
1822 1029 1777T990 1697T927 1641T844 1620Q804 1620 764 1633T677 1668Q613 1697 584 1708Q550 1720 522 1720Q485 1720 463 1696T437 1635H332ZM433 540H940L685 1265L433 540ZM994 385H379L245 0H40Q53 30 67 63T97 137T134 232T180 355L580 1460H795L1195
355Q1220 285 1240 232T1277 138T1308 63T1335 0H1130L994 385Z" />
<glyph unicode="&#xc4;" glyph-name="Adieresis" horiz-adv-x="1395" d="M770 1747T770 1775T779 1827T806 1870T846 1899T897 1910T948 1900T989 1871T1015 1828T1025 1775T1016 1723T989 1680T949 1651T897 1640T846 1650T806 1679T780 1722ZM350 1747T350 1775T359
1827T386 1870T426 1899T477 1910T528 1900T569 1871T595 1828T605 1775T596 1723T569 1680T529 1651T477 1640T426 1650T386 1679T360 1722ZM433 540H940L685 1265L433 540ZM994 385H379L245 0H40Q53 30 67 63T97 137T134 232T180 355L580 1460H795L1195 355Q1220
285 1240 232T1277 138T1308 63T1335 0H1130L994 385Z" />
<glyph unicode="&#xc5;" glyph-name="Aring" horiz-adv-x="1395" d="M787 1770T787 1815T760 1887T687 1915T615 1888T587 1815T614 1743T687 1715T759 1742ZM472 1770T472 1815T488 1899T534 1967T603 2013T687 2030T771 2014T839 1968T885 1899T902 1815T886
1731T840 1663T771 1617T687 1600T603 1616T535 1662T489 1731ZM433 540H940L685 1265L433 540ZM994 385H379L245 0H40Q53 30 67 63T97 137T134 232T180 355L580 1460H795L1195 355Q1220 285 1240 232T1277 138T1308 63T1335 0H1130L994 385Z" />
<glyph unicode="&#xc6;" glyph-name="AE" horiz-adv-x="1805" d="M905 0Q908 17 910 42T914 111T917 220T919 385H470L280 0H80Q114 55 142 104T195 201T245 297T295 399L810 1460H1655V1295H1110V845H1580V685H1110V165H1274Q1423 165 1524 167T1685 180V0H905ZM547
540H919Q920 675 920 859V1295L547 540Z" />
<glyph unicode="&#xc7;" glyph-name="Ccedilla" horiz-adv-x="1355" d="M1230 140Q1186 99 1127 69T1004 17T873 -14T750 -25V-95Q760 -93 770 -92T798 -90Q832 -90 861 -102T911 -137T943 -191T955 -260Q955 -311 932 -352T872 -421T790 -465T700 -480Q661 -480
629 -469T565 -440L575 -340Q597 -356 620 -363T675 -370Q697 -370 720 -365T763 -348T796 -317T810 -270Q809 -231 782 -206T713 -180Q689 -180 665 -187T625 -205V-15Q501 5 403 64T237 216T132 434T95 710Q95 903 151 1048T300 1291T516 1436T770 1485Q824 1485
880 1478T992 1455T1105 1412T1215 1345L1155 1165Q1108 1207 1059 1236T961 1282T864 1307T770 1315Q665 1315 577 1279T426 1169T326 988T290 735Q290 619 321 513T412 327T559 198T760 150Q817 150 875 163T990 200T1097 259T1190 335L1230 140Z" />
<glyph unicode="&#xc8;" glyph-name="Egrave" horiz-adv-x="1160" d="M440 2030L790 1600H630L210 2030H440ZM935 845V685H365V165H629Q778 165 879 167T1040 180V0H160Q171 60 173 173T175 435V1025Q175 1173 173 1286T160 1460H1010V1295H365V845H935Z" />
<glyph unicode="&#xc9;" glyph-name="Eacute" horiz-adv-x="1160" d="M1000 2030L580 1600H420L770 2030H1000ZM935 845V685H365V165H629Q778 165 879 167T1040 180V0H160Q171 60 173 173T175 435V1025Q175 1173 173 1286T160 1460H1010V1295H365V845H935Z" />
<glyph unicode="&#xca;" glyph-name="Ecircumflex" horiz-adv-x="1160" d="M175 1600L515 2030H685L1025 1600H875L600 1880L325 1600H175ZM935 845V685H365V165H629Q778 165 879 167T1040 180V0H160Q171 60 173 173T175 435V1025Q175 1173 173 1286T160 1460H1010V1295H365V845H935Z"
/>
<glyph unicode="&#xcb;" glyph-name="Edieresis" horiz-adv-x="1160" d="M683 1747T683 1775T692 1827T719 1870T759 1899T810 1910T861 1900T902 1871T928 1828T938 1775T929 1723T902 1680T862 1651T810 1640T759 1650T719 1679T693 1722ZM263 1747T263 1775T272
1827T299 1870T339 1899T390 1910T441 1900T482 1871T508 1828T518 1775T509 1723T482 1680T442 1651T390 1640T339 1650T299 1679T273 1722ZM935 845V685H365V165H629Q778 165 879 167T1040 180V0H160Q171 60 173 173T175 435V1025Q175 1173 173 1286T160 1460H1010V1295H365V845H935Z"
/>
<glyph unicode="&#xcc;" glyph-name="Igrave" horiz-adv-x="975" d="M317 2030L667 1600H507L87 2030H317ZM815 1460V1315H570V145H815V0H140V145H380V1315H140V1460H815Z" />
<glyph unicode="&#xcd;" glyph-name="Iacute" horiz-adv-x="975" d="M877 2030L457 1600H297L647 2030H877ZM815 1460V1315H570V145H815V0H140V145H380V1315H140V1460H815Z" />
<glyph unicode="&#xce;" glyph-name="Icircumflex" horiz-adv-x="975" d="M52 1600L392 2030H562L902 1600H752L477 1880L202 1600H52ZM815 1460V1315H570V145H815V0H140V145H380V1315H140V1460H815Z" />
<glyph unicode="&#xcf;" glyph-name="Idieresis" horiz-adv-x="975" d="M560 1747T560 1775T569 1827T596 1870T636 1899T687 1910T738 1900T779 1871T805 1828T815 1775T806 1723T779 1680T739 1651T687 1640T636 1650T596 1679T570 1722ZM140 1747T140 1775T149
1827T176 1870T216 1899T267 1910T318 1900T359 1871T385 1828T395 1775T386 1723T359 1680T319 1651T267 1640T216 1650T176 1679T150 1722ZM815 1460V1315H570V145H815V0H140V145H380V1315H140V1460H815Z" />
<glyph unicode="&#xd1;" glyph-name="Ntilde" horiz-adv-x="1500" d="M382 1635Q382 1681 395 1725T433 1805T493 1863T574 1885Q595 1885 615 1881T655 1870T698 1853T747 1833L796 1813Q817 1804 835 1798T870 1789T902 1785Q937 1785 959 1810T987 1870H1092Q1092
1822 1079 1777T1040 1697T977 1641T894 1620Q854 1620 814 1633T727 1668Q663 1697 634 1708Q600 1720 572 1720Q535 1720 513 1696T487 1635H382ZM340 1152V0H160Q171 60 173 173T175 435V1025Q175 1173 173 1286T160 1460H340L1135 303V1460H1315Q1310 1430
1307 1386T1303 1287T1301 1165T1300 1025V0H1135L340 1152Z" />
<glyph unicode="&#xd2;" glyph-name="Ograve" horiz-adv-x="1460" d="M557 2030L907 1600H747L327 2030H557ZM1340 740Q1340 560 1287 418T1145 178T943 27T710 -25Q589 -25 478 24T282 168T146 401T95 720Q95 840 119 943T187 1131T291 1282T421 1393T570 1461T730
1485Q849 1485 959 1436T1154 1292T1289 1059T1340 740ZM1145 715Q1145 853 1115 963T1028 1151T894 1269T720 1310Q625 1310 546 1271T410 1158T322 980T290 745Q290 608 320 498T407 311T543 192T720 150Q812 150 890 188T1024 299T1113 477T1145 715Z" />
<glyph unicode="&#xd3;" glyph-name="Oacute" horiz-adv-x="1460" d="M1117 2030L697 1600H537L887 2030H1117ZM1340 740Q1340 560 1287 418T1145 178T943 27T710 -25Q589 -25 478 24T282 168T146 401T95 720Q95 840 119 943T187 1131T291 1282T421 1393T570 1461T730
1485Q849 1485 959 1436T1154 1292T1289 1059T1340 740ZM1145 715Q1145 853 1115 963T1028 1151T894 1269T720 1310Q625 1310 546 1271T410 1158T322 980T290 745Q290 608 320 498T407 311T543 192T720 150Q812 150 890 188T1024 299T1113 477T1145 715Z" />
<glyph unicode="&#xd4;" glyph-name="Ocircumflex" horiz-adv-x="1460" d="M292 1600L632 2030H802L1142 1600H992L717 1880L442 1600H292ZM1340 740Q1340 560 1287 418T1145 178T943 27T710 -25Q589 -25 478 24T282 168T146 401T95 720Q95 840 119 943T187 1131T291
1282T421 1393T570 1461T730 1485Q849 1485 959 1436T1154 1292T1289 1059T1340 740ZM1145 715Q1145 853 1115 963T1028 1151T894 1269T720 1310Q625 1310 546 1271T410 1158T322 980T290 745Q290 608 320 498T407 311T543 192T720 150Q812 150 890 188T1024 299T1113
477T1145 715Z" />
<glyph unicode="&#xd5;" glyph-name="Otilde" horiz-adv-x="1460" d="M362 1635Q362 1681 375 1725T413 1805T473 1863T554 1885Q575 1885 595 1881T635 1870T678 1853T727 1833L776 1813Q797 1804 815 1798T850 1789T882 1785Q917 1785 939 1810T967 1870H1072Q1072
1822 1059 1777T1020 1697T957 1641T874 1620Q834 1620 794 1633T707 1668Q643 1697 614 1708Q580 1720 552 1720Q515 1720 493 1696T467 1635H362ZM1340 740Q1340 560 1287 418T1145 178T943 27T710 -25Q589 -25 478 24T282 168T146 401T95 720Q95 840 119 943T187
1131T291 1282T421 1393T570 1461T730 1485Q849 1485 959 1436T1154 1292T1289 1059T1340 740ZM1145 715Q1145 853 1115 963T1028 1151T894 1269T720 1310Q625 1310 546 1271T410 1158T322 980T290 745Q290 608 320 498T407 311T543 192T720 150Q812 150 890 188T1024
299T1113 477T1145 715Z" />
<glyph unicode="&#xd6;" glyph-name="Odieresis" horiz-adv-x="1460" d="M800 1747T800 1775T809 1827T836 1870T876 1899T927 1910T978 1900T1019 1871T1045 1828T1055 1775T1046 1723T1019 1680T979 1651T927 1640T876 1650T836 1679T810 1722ZM380 1747T380
1775T389 1827T416 1870T456 1899T507 1910T558 1900T599 1871T625 1828T635 1775T626 1723T599 1680T559 1651T507 1640T456 1650T416 1679T390 1722ZM1340 740Q1340 560 1287 418T1145 178T943 27T710 -25Q589 -25 478 24T282 168T146 401T95 720Q95 840 119
943T187 1131T291 1282T421 1393T570 1461T730 1485Q849 1485 959 1436T1154 1292T1289 1059T1340 740ZM1145 715Q1145 853 1115 963T1028 1151T894 1269T720 1310Q625 1310 546 1271T410 1158T322 980T290 745Q290 608 320 498T407 311T543 192T720 150Q812 150
890 188T1024 299T1113 477T1145 715Z" />
<glyph unicode="&#xd8;" glyph-name="Oslash" horiz-adv-x="1460" d="M290 745Q290 608 319 500T405 314L913 1258Q827 1310 720 1310Q625 1310 546 1271T410 1158T322 980T290 745ZM1145 715Q1145 863 1111 977T1013 1170L500 217Q594 150 720 150Q812 150 890
188T1024 299T1113 477T1145 715ZM1206 1530L1105 1341Q1157 1294 1200 1233T1275 1096T1323 932T1340 740Q1340 560 1287 418T1145 178T943 27T710 -25Q551 -25 414 57L343 -75H195L310 138Q212 233 154 379T95 720Q95 840 119 943T187 1131T291 1282T421 1393T570
1461T730 1485Q801 1485 868 1468T998 1416L1060 1530H1206Z" />
<glyph unicode="&#xd9;" glyph-name="Ugrave" horiz-adv-x="1440" d="M547 2030L897 1600H737L317 2030H547ZM1255 1460Q1245 1400 1243 1291T1240 1025V515Q1240 393 1208 294T1111 123T945 14T710 -25Q573 -25 473 13T306 123T208 293T175 515V1025Q175 1173
173 1286T160 1460H365V560Q365 462 382 384T439 250T545 165T710 135Q807 135 872 164T976 249T1033 383T1050 560V1460H1255Z" />
<glyph unicode="&#xda;" glyph-name="Uacute" horiz-adv-x="1440" d="M1107 2030L687 1600H527L877 2030H1107ZM1255 1460Q1245 1400 1243 1291T1240 1025V515Q1240 393 1208 294T1111 123T945 14T710 -25Q573 -25 473 13T306 123T208 293T175 515V1025Q175 1173
173 1286T160 1460H365V560Q365 462 382 384T439 250T545 165T710 135Q807 135 872 164T976 249T1033 383T1050 560V1460H1255Z" />
<glyph unicode="&#xdb;" glyph-name="Ucircumflex" horiz-adv-x="1440" d="M282 1600L622 2030H792L1132 1600H982L707 1880L432 1600H282ZM1255 1460Q1245 1400 1243 1291T1240 1025V515Q1240 393 1208 294T1111 123T945 14T710 -25Q573 -25 473 13T306 123T208
293T175 515V1025Q175 1173 173 1286T160 1460H365V560Q365 462 382 384T439 250T545 165T710 135Q807 135 872 164T976 249T1033 383T1050 560V1460H1255Z" />
<glyph unicode="&#xdc;" glyph-name="Udieresis" horiz-adv-x="1440" d="M790 1747T790 1775T799 1827T826 1870T866 1899T917 1910T968 1900T1009 1871T1035 1828T1045 1775T1036 1723T1009 1680T969 1651T917 1640T866 1650T826 1679T800 1722ZM370 1747T370
1775T379 1827T406 1870T446 1899T497 1910T548 1900T589 1871T615 1828T625 1775T616 1723T589 1680T549 1651T497 1640T446 1650T406 1679T380 1722ZM1255 1460Q1245 1400 1243 1291T1240 1025V515Q1240 393 1208 294T1111 123T945 14T710 -25Q573 -25 473 13T306
123T208 293T175 515V1025Q175 1173 173 1286T160 1460H365V560Q365 462 382 384T439 250T545 165T710 135Q807 135 872 164T976 249T1033 383T1050 560V1460H1255Z" />
<glyph unicode="&#xdf;" glyph-name="germandbls" horiz-adv-x="1238" d="M762 845Q762 806 779 779T824 731T885 693T952 656Q990 633 1031 604T1105 536T1161 445T1183 328Q1183 245 1154 180T1073 69T950 -1T793 -25Q757 -25 719 -19T645 -2T580 21T531 48L581
228Q599 210 623 193T676 164T734 143T793 135Q839 135 878 147T946 183T991 241T1007 319Q1007 353 993 382T955 438T899 485T832 525Q788 547 744 575T663 642T605 730T582 845Q582 907 605 949T664 1021T741 1074T817 1123T876 1182T900 1264Q900 1307 878 1343T820
1405T741 1445T655 1460Q603 1460 548 1445T448 1395T374 1303T345 1160V0H130Q138 39 144 94T153 213T158 349T160 494V1120Q160 1255 199 1350T302 1505T449 1592T619 1620Q734 1620 821 1592T966 1516T1054 1409T1083 1284Q1083 1204 1059 1153T1000 1067T923
1011T846 966T786 917T762 845Z" />
<glyph unicode="&#xe0;" glyph-name="agrave.SngStory" horiz-adv-x="1150" d="M455 1600L805 1170H645L225 1600H455ZM595 870Q563 870 531 863T467 837T406 790T350 715Q323 669 307 601T290 460Q290 377 305 318T346 220T404 163T470 145Q512 145 561 171T658
240T746 339T815 455V830Q800 837 777 844T725 857T663 866T595 870ZM1000 530Q1000 341 1021 213T1075 0H900Q895 13 886 36T868 88T850 152T835 220Q796 170 753 126T661 48T561 -5T455 -25Q392 -25 330 2T217 83T136 218T105 410Q105 525 130 618T200 785Q239
849 283 897T379 976T495 1024T635 1040Q673 1040 719 1035T814 1019T911 995T1000 965V530Z" />
<glyph unicode="&#xe1;" glyph-name="aacute.SngStory" horiz-adv-x="1150" d="M1015 1600L595 1170H435L785 1600H1015ZM595 870Q563 870 531 863T467 837T406 790T350 715Q323 669 307 601T290 460Q290 377 305 318T346 220T404 163T470 145Q512 145 561 171T658
240T746 339T815 455V830Q800 837 777 844T725 857T663 866T595 870ZM1000 530Q1000 341 1021 213T1075 0H900Q895 13 886 36T868 88T850 152T835 220Q796 170 753 126T661 48T561 -5T455 -25Q392 -25 330 2T217 83T136 218T105 410Q105 525 130 618T200 785Q239
849 283 897T379 976T495 1024T635 1040Q673 1040 719 1035T814 1019T911 995T1000 965V530Z" />
<glyph unicode="&#xe2;" glyph-name="acircumflex.SngStory" horiz-adv-x="1150" d="M190 1170L530 1600H700L1040 1170H890L615 1450L340 1170H190ZM595 870Q563 870 531 863T467 837T406 790T350 715Q323 669 307 601T290 460Q290 377 305 318T346 220T404 163T470
145Q512 145 561 171T658 240T746 339T815 455V830Q800 837 777 844T725 857T663 866T595 870ZM1000 530Q1000 341 1021 213T1075 0H900Q895 13 886 36T868 88T850 152T835 220Q796 170 753 126T661 48T561 -5T455 -25Q392 -25 330 2T217 83T136 218T105 410Q105
525 130 618T200 785Q239 849 283 897T379 976T495 1024T635 1040Q673 1040 719 1035T814 1019T911 995T1000 965V530Z" />
<glyph unicode="&#xe3;" glyph-name="atilde.SngStory" horiz-adv-x="1150" d="M260 1205Q260 1251 273 1295T311 1375T371 1433T452 1455Q473 1455 493 1451T533 1440T576 1423T625 1403L674 1383Q695 1374 713 1368T748 1359T780 1355Q815 1355 837 1380T865
1440H970Q970 1392 957 1347T918 1267T855 1211T772 1190Q732 1190 692 1203T605 1238Q541 1267 512 1278Q478 1290 450 1290Q413 1290 391 1266T365 1205H260ZM595 870Q563 870 531 863T467 837T406 790T350 715Q323 669 307 601T290 460Q290 377 305 318T346
220T404 163T470 145Q512 145 561 171T658 240T746 339T815 455V830Q800 837 777 844T725 857T663 866T595 870ZM1000 530Q1000 341 1021 213T1075 0H900Q895 13 886 36T868 88T850 152T835 220Q796 170 753 126T661 48T561 -5T455 -25Q392 -25 330 2T217 83T136
218T105 410Q105 525 130 618T200 785Q239 849 283 897T379 976T495 1024T635 1040Q673 1040 719 1035T814 1019T911 995T1000 965V530Z" />
<glyph unicode="&#xe4;" glyph-name="adieresis.SngStory" horiz-adv-x="1150" d="M698 1317T698 1345T707 1397T734 1440T774 1469T825 1480T876 1470T917 1441T943 1398T953 1345T944 1293T917 1250T877 1221T825 1210T774 1220T734 1249T708 1292ZM278 1317T278
1345T287 1397T314 1440T354 1469T405 1480T456 1470T497 1441T523 1398T533 1345T524 1293T497 1250T457 1221T405 1210T354 1220T314 1249T288 1292ZM595 870Q563 870 531 863T467 837T406 790T350 715Q323 669 307 601T290 460Q290 377 305 318T346 220T404
163T470 145Q512 145 561 171T658 240T746 339T815 455V830Q800 837 777 844T725 857T663 866T595 870ZM1000 530Q1000 341 1021 213T1075 0H900Q895 13 886 36T868 88T850 152T835 220Q796 170 753 126T661 48T561 -5T455 -25Q392 -25 330 2T217 83T136 218T105
410Q105 525 130 618T200 785Q239 849 283 897T379 976T495 1024T635 1040Q673 1040 719 1035T814 1019T911 995T1000 965V530Z" />
<glyph unicode="&#xe5;" glyph-name="aring.SngStory" horiz-adv-x="1150" d="M715 1340T715 1385T688 1457T615 1485T543 1458T515 1385T542 1313T615 1285T687 1312ZM400 1340T400 1385T416 1469T462 1537T531 1583T615 1600T699 1584T767 1538T813 1469T830
1385T814 1301T768 1233T699 1187T615 1170T531 1186T463 1232T417 1301ZM595 870Q563 870 531 863T467 837T406 790T350 715Q323 669 307 601T290 460Q290 377 305 318T346 220T404 163T470 145Q512 145 561 171T658 240T746 339T815 455V830Q800 837 777 844T725
857T663 866T595 870ZM1000 530Q1000 341 1021 213T1075 0H900Q895 13 886 36T868 88T850 152T835 220Q796 170 753 126T661 48T561 -5T455 -25Q392 -25 330 2T217 83T136 218T105 410Q105 525 130 618T200 785Q239 849 283 897T379 976T495 1024T635 1040Q673
1040 719 1035T814 1019T911 995T1000 965V530Z" />
<glyph unicode="&#xe6;" glyph-name="ae" horiz-adv-x="1745" d="M1230 890Q1120 890 1043 826T940 625H1460Q1460 689 1442 738T1392 822T1319 873T1230 890ZM755 485Q736 484 702 483T630 481T556 477T495 470Q432 459 391 441T325 398T290 344T280 280Q280
250 292 225T327 181T381 151T450 140Q488 140 525 146T599 172T674 228T755 325Q760 331 764 336T770 350Q763 381 759 415T755 485ZM1245 1040Q1322 1040 1381 1021T1485 967T1558 887T1606 788T1632 678T1640 565V485H930Q933 397 959 332T1030 225T1133 161T1260
140Q1308 140 1354 145T1445 162T1534 193T1625 240L1645 75Q1592 48 1543 29T1445 -2T1344 -19T1235 -25Q1173 -25 1115 -11T1004 30T907 99T830 196Q819 183 808 171T785 145Q741 98 696 66T605 13T513 -16T420 -25Q349 -25 290 -2T187 59T120 148T95 255Q95
312 114 369T178 474T298 559T485 610Q511 613 550 615T630 619T705 622T755 625V710Q755 755 736 787T682 840T599 870T495 880Q455 880 421 872T352 848T281 809T200 755Q200 771 201 797T203 852T206 907T210 950Q249 966 284 982T357 1011T439 1032T540 1040Q591
1040 640 1029T734 997T816 942T880 865Q948 948 1042 994T1245 1040Z" />
<glyph unicode="&#xe7;" glyph-name="ccedilla" horiz-adv-x="1020" d="M615 1040Q715 1040 787 1017T915 955L880 775Q812 825 745 850T600 875Q533 875 476 850T376 776T309 658T285 500Q285 419 307 353T370 240T469 166T600 140Q691 140 765 171T905 260L925
85Q887 56 850 36T771 2T683 -18T580 -25Q575 -25 570 -25T560 -24V-95Q570 -93 580 -92T608 -90Q642 -90 671 -102T721 -137T753 -191T765 -260Q765 -311 742 -352T682 -421T600 -465T510 -480Q471 -480 439 -469T375 -440L385 -340Q407 -356 430 -363T485 -370Q507
-370 530 -365T573 -348T606 -317T620 -270Q619 -231 592 -206T523 -180Q499 -180 475 -187T435 -205V-4Q361 17 299 60T191 167T121 311T95 490Q95 603 131 703T235 878T399 996T615 1040Z" />
<glyph unicode="&#xe8;" glyph-name="egrave" horiz-adv-x="1095" d="M409 1600L759 1170H599L179 1600H409ZM575 1040Q657 1040 720 1021T829 967T906 886T955 787T982 677T990 563V524Q990 499 989 485H280Q283 397 307 332T374 225T474 161T600 140Q697 140
790 162T975 240L995 75Q942 48 891 29T789 -2T686 -19T575 -25Q479 -25 392 8T239 107T134 270T95 495Q95 619 128 719T224 891T375 1001T575 1040ZM560 890Q450 890 380 826T288 625H810Q810 689 792 738T740 822T660 873T560 890Z" />
<glyph unicode="&#xe9;" glyph-name="eacute" horiz-adv-x="1095" d="M969 1600L549 1170H389L739 1600H969ZM575 1040Q657 1040 720 1021T829 967T906 886T955 787T982 677T990 563V524Q990 499 989 485H280Q283 397 307 332T374 225T474 161T600 140Q697 140
790 162T975 240L995 75Q942 48 891 29T789 -2T686 -19T575 -25Q479 -25 392 8T239 107T134 270T95 495Q95 619 128 719T224 891T375 1001T575 1040ZM560 890Q450 890 380 826T288 625H810Q810 689 792 738T740 822T660 873T560 890Z" />
<glyph unicode="&#xea;" glyph-name="ecircumflex" horiz-adv-x="1095" d="M144 1170L484 1600H654L994 1170H844L569 1450L294 1170H144ZM575 1040Q657 1040 720 1021T829 967T906 886T955 787T982 677T990 563V524Q990 499 989 485H280Q283 397 307 332T374
225T474 161T600 140Q697 140 790 162T975 240L995 75Q942 48 891 29T789 -2T686 -19T575 -25Q479 -25 392 8T239 107T134 270T95 495Q95 619 128 719T224 891T375 1001T575 1040ZM560 890Q450 890 380 826T288 625H810Q810 689 792 738T740 822T660 873T560 890Z"
/>
<glyph unicode="&#xeb;" glyph-name="edieresis" horiz-adv-x="1095" d="M652 1317T652 1345T661 1397T688 1440T728 1469T779 1480T830 1470T871 1441T897 1398T907 1345T898 1293T871 1250T831 1221T779 1210T728 1220T688 1249T662 1292ZM232 1317T232 1345T241
1397T268 1440T308 1469T359 1480T410 1470T451 1441T477 1398T487 1345T478 1293T451 1250T411 1221T359 1210T308 1220T268 1249T242 1292ZM575 1040Q657 1040 720 1021T829 967T906 886T955 787T982 677T990 563V524Q990 499 989 485H280Q283 397 307 332T374
225T474 161T600 140Q697 140 790 162T975 240L995 75Q942 48 891 29T789 -2T686 -19T575 -25Q479 -25 392 8T239 107T134 270T95 495Q95 619 128 719T224 891T375 1001T575 1040ZM560 890Q450 890 380 826T288 625H810Q810 689 792 738T740 822T660 873T560 890Z"
/>
<glyph unicode="&#xec;" glyph-name="igrave" horiz-adv-x="530" d="M355 475Q355 427 356 362T360 229T366 101T375 0H170V530Q170 603 170 674T168 808T163 926T155 1020H355V475ZM105 1600L455 1170H295L-125 1600H105Z" />
<glyph unicode="&#xed;" glyph-name="iacute" horiz-adv-x="530" d="M355 475Q355 427 356 362T360 229T366 101T375 0H170V530Q170 603 170 674T168 808T163 926T155 1020H355V475ZM665 1600L245 1170H85L435 1600H665Z" />
<glyph unicode="&#xee;" glyph-name="icircumflex" horiz-adv-x="530" d="M355 475Q355 427 356 362T360 229T366 101T375 0H170V530Q170 603 170 674T168 808T163 926T155 1020H355V475ZM-160 1170L180 1600H350L690 1170H540L265 1450L-10 1170H-160Z" />
<glyph unicode="&#xef;" glyph-name="idieresis" horiz-adv-x="530" d="M355 475Q355 427 356 362T360 229T366 101T375 0H170V530Q170 603 170 674T168 808T163 926T155 1020H355V475ZM348 1317T348 1345T357 1397T384 1440T424 1469T475 1480T526 1470T567 1441T593
1398T603 1345T594 1293T567 1250T527 1221T475 1210T424 1220T384 1249T358 1292ZM-72 1317T-72 1345T-63 1397T-36 1440T4 1469T55 1480T106 1470T147 1441T173 1398T183 1345T174 1293T147 1250T107 1221T55 1210T4 1220T-36 1249T-62 1292Z" />
<glyph unicode="&#xf1;" glyph-name="ntilde" horiz-adv-x="1185" d="M244 1205Q244 1251 257 1295T295 1375T355 1433T436 1455Q457 1455 477 1451T517 1440T560 1423T609 1403L658 1383Q679 1374 697 1368T732 1359T764 1355Q799 1355 821 1380T849 1440H954Q954
1392 941 1347T902 1267T839 1211T756 1190Q716 1190 676 1203T589 1238Q525 1267 496 1278Q462 1290 434 1290Q397 1290 375 1266T349 1205H244ZM719 1040Q879 1040 964 936T1049 625V0H864V550Q864 644 852 705T815 801T753 851T664 865Q610 865 559 840T464
774T388 682T339 580V0H154V615Q154 763 138 865T104 1020H284Q290 1004 296 979T307 925T316 870L324 825Q419 939 516 989T719 1040Z" />
<glyph unicode="&#xf2;" glyph-name="ograve" horiz-adv-x="1140" d="M410 1600L760 1170H600L180 1600H410ZM280 505Q280 418 301 349T360 233T452 160T570 135Q630 135 683 160T775 232T837 349T860 505Q860 593 839 662T780 780T688 854T570 880Q509 880 456
855T364 781T303 663T280 505ZM95 505Q95 634 134 733T239 901T393 1005T580 1040Q683 1040 768 1005T915 902T1011 734T1045 505Q1045 376 1006 277T901 111T747 10T560 -25Q457 -25 372 9T225 111T129 277T95 505Z" />
<glyph unicode="&#xf3;" glyph-name="oacute" horiz-adv-x="1140" d="M970 1600L550 1170H390L740 1600H970ZM280 505Q280 418 301 349T360 233T452 160T570 135Q630 135 683 160T775 232T837 349T860 505Q860 593 839 662T780 780T688 854T570 880Q509 880 456
855T364 781T303 663T280 505ZM95 505Q95 634 134 733T239 901T393 1005T580 1040Q683 1040 768 1005T915 902T1011 734T1045 505Q1045 376 1006 277T901 111T747 10T560 -25Q457 -25 372 9T225 111T129 277T95 505Z" />
<glyph unicode="&#xf4;" glyph-name="ocircumflex" horiz-adv-x="1140" d="M145 1170L485 1600H655L995 1170H845L570 1450L295 1170H145ZM280 505Q280 418 301 349T360 233T452 160T570 135Q630 135 683 160T775 232T837 349T860 505Q860 593 839 662T780 780T688
854T570 880Q509 880 456 855T364 781T303 663T280 505ZM95 505Q95 634 134 733T239 901T393 1005T580 1040Q683 1040 768 1005T915 902T1011 734T1045 505Q1045 376 1006 277T901 111T747 10T560 -25Q457 -25 372 9T225 111T129 277T95 505Z" />
<glyph unicode="&#xf5;" glyph-name="otilde" horiz-adv-x="1140" d="M215 1205Q215 1251 228 1295T266 1375T326 1433T407 1455Q428 1455 448 1451T488 1440T531 1423T580 1403L628 1383Q650 1374 668 1368T703 1359T735 1355Q770 1355 792 1380T820 1440H925Q925
1392 912 1347T873 1267T810 1211T727 1190Q687 1190 647 1203T560 1238Q496 1267 468 1278Q433 1290 405 1290Q368 1290 346 1266T320 1205H215ZM280 505Q280 418 301 349T360 233T452 160T570 135Q630 135 683 160T775 232T837 349T860 505Q860 593 839 662T780
780T688 854T570 880Q509 880 456 855T364 781T303 663T280 505ZM95 505Q95 634 134 733T239 901T393 1005T580 1040Q683 1040 768 1005T915 902T1011 734T1045 505Q1045 376 1006 277T901 111T747 10T560 -25Q457 -25 372 9T225 111T129 277T95 505Z" />
<glyph unicode="&#xf6;" glyph-name="odieresis" horiz-adv-x="1140" d="M653 1317T653 1345T662 1397T689 1440T729 1469T780 1480T831 1470T872 1441T898 1398T908 1345T899 1293T872 1250T832 1221T780 1210T729 1220T689 1249T663 1292ZM233 1317T233 1345T242
1397T269 1440T309 1469T360 1480T411 1470T452 1441T478 1398T488 1345T479 1293T452 1250T412 1221T360 1210T309 1220T269 1249T243 1292ZM280 505Q280 418 301 349T360 233T452 160T570 135Q630 135 683 160T775 232T837 349T860 505Q860 593 839 662T780 780T688
854T570 880Q509 880 456 855T364 781T303 663T280 505ZM95 505Q95 634 134 733T239 901T393 1005T580 1040Q683 1040 768 1005T915 902T1011 734T1045 505Q1045 376 1006 277T901 111T747 10T560 -25Q457 -25 372 9T225 111T129 277T95 505Z" />
<glyph unicode="&#xf7;" glyph-name="divide" horiz-adv-x="1200" d="M155 800H1045V650H155V800ZM458 1045Q458 1073 469 1098T500 1143T545 1173T600 1184Q628 1184 653 1173T697 1143T726 1099T737 1045Q737 1016 727 991T697 947T653 917T600 906Q571 906
546 917T501 947T470 991T458 1045ZM458 407Q458 435 469 460T500 504T545 534T600 545Q628 545 653 534T697 505T726 461T737 407Q737 378 727 353T697 309T653 278T600 267Q571 267 546 278T501 308T470 353T458 407Z" />
<glyph unicode="&#xf8;" glyph-name="oslash" horiz-adv-x="1140" d="M280 507Q280 429 296 367T344 256L670 862Q623 880 570 880Q509 880 456 855T364 781T303 664T280 507ZM860 507Q860 597 838 667T776 785L442 165Q497 135 570 135Q630 135 683 160T775 234T837
351T860 507ZM948 1105L864 950Q949 884 997 773T1045 507Q1045 378 1006 279T901 112T747 10T560 -25Q505 -25 456 -15T361 14L313 -75H165L251 85Q177 153 136 258T95 507Q95 636 134 735T239 902T393 1005T580 1040Q672 1040 751 1011L802 1105H948Z" />
<glyph unicode="&#xf9;" glyph-name="ugrave" horiz-adv-x="1185" d="M429 1600L779 1170H619L199 1600H429ZM475 -25Q155 -25 155 405V700Q155 748 155 787T152 862T146 937T135 1020H340V465Q340 380 348 319T377 218T429 159T510 140Q554 140 604 166T699 234T782
324T840 420V700Q840 749 840 788T837 864T831 937T820 1020H1025V450Q1025 304 1041 195T1090 0H920Q913 17 905 40T890 89T876 143T865 200Q774 89 678 32T475 -25Z" />
<glyph unicode="&#xfa;" glyph-name="uacute" horiz-adv-x="1185" d="M989 1600L569 1170H409L759 1600H989ZM475 -25Q155 -25 155 405V700Q155 748 155 787T152 862T146 937T135 1020H340V465Q340 380 348 319T377 218T429 159T510 140Q554 140 604 166T699 234T782
324T840 420V700Q840 749 840 788T837 864T831 937T820 1020H1025V450Q1025 304 1041 195T1090 0H920Q913 17 905 40T890 89T876 143T865 200Q774 89 678 32T475 -25Z" />
<glyph unicode="&#xfb;" glyph-name="ucircumflex" horiz-adv-x="1185" d="M164 1170L504 1600H674L1014 1170H864L589 1450L314 1170H164ZM475 -25Q155 -25 155 405V700Q155 748 155 787T152 862T146 937T135 1020H340V465Q340 380 348 319T377 218T429 159T510
140Q554 140 604 166T699 234T782 324T840 420V700Q840 749 840 788T837 864T831 937T820 1020H1025V450Q1025 304 1041 195T1090 0H920Q913 17 905 40T890 89T876 143T865 200Q774 89 678 32T475 -25Z" />
<glyph unicode="&#xfc;" glyph-name="udieresis" horiz-adv-x="1185" d="M672 1317T672 1345T681 1397T708 1440T748 1469T799 1480T850 1470T891 1441T917 1398T927 1345T918 1293T891 1250T851 1221T799 1210T748 1220T708 1249T682 1292ZM252 1317T252 1345T261
1397T288 1440T328 1469T379 1480T430 1470T471 1441T497 1398T507 1345T498 1293T471 1250T431 1221T379 1210T328 1220T288 1249T262 1292ZM475 -25Q155 -25 155 405V700Q155 748 155 787T152 862T146 937T135 1020H340V465Q340 380 348 319T377 218T429 159T510
140Q554 140 604 166T699 234T782 324T840 420V700Q840 749 840 788T837 864T831 937T820 1020H1025V450Q1025 304 1041 195T1090 0H920Q913 17 905 40T890 89T876 143T865 200Q774 89 678 32T475 -25Z" />
<glyph unicode="&#xff;" glyph-name="ydieresis" horiz-adv-x="1060" d="M618 1317T618 1345T627 1397T654 1440T694 1469T745 1480T796 1470T837 1441T863 1398T873 1345T864 1293T837 1250T797 1221T745 1210T694 1220T654 1249T628 1292ZM198 1317T198 1345T207
1397T234 1440T274 1469T325 1480T376 1470T417 1441T443 1398T453 1345T444 1293T417 1250T377 1221T325 1210T274 1220T234 1249T208 1292ZM655 0Q603 -144 553 -235T452 -378T345 -450T225 -470Q156 -470 96 -448T-20 -385L40 -225Q56 -238 77 -251T123 -275T174
-293T225 -300Q255 -300 284 -290T342 -250T403 -167T469 -26L190 665Q162 733 125 818T30 1020H230L553 203Q572 257 594 320T641 451T689 587T735 719Q787 867 840 1020H1040Q1014 962 993 913T954 820T922 738T895 665L655 0Z" />
<glyph unicode="&#x131;" glyph-name="dotlessi" horiz-adv-x="530" d="M355 475Q355 427 356 362T360 229T366 101T375 0H170V530Q170 603 170 674T168 808T163 926T155 1020H355V475Z" />
<glyph unicode="&#x152;" glyph-name="OE" horiz-adv-x="1950" d="M1075 715Q1075 853 1049 963T973 1151T849 1269T680 1310Q593 1310 521 1271T398 1158T318 980T290 745Q290 608 317 498T395 311T518 192T680 150Q772 150 845 188T969 299T1047 477T1075 715ZM1063
165Q1024 122 979 87T883 27T780 -11T670 -25Q553 -25 449 24T266 168T141 401T95 720Q95 900 144 1042T275 1282T465 1433T690 1485Q751 1485 804 1471T904 1432T990 1373T1063 1296Q1062 1316 1061 1340T1058 1386T1054 1428T1050 1460H1800V1295H1255V845H1725V685H1255V165H1419Q1568
165 1669 167T1830 180V0H1050Q1055 27 1058 72T1063 165Z" />
<glyph unicode="&#x153;" glyph-name="oe" horiz-adv-x="1860" d="M95 507Q95 636 134 735T239 902T393 1005T580 1040Q702 1040 798 992T956 849Q1019 940 1115 990T1340 1040Q1422 1040 1485 1021T1594 967T1671 886T1720 787T1747 677T1755 563V524Q1755 499
1754 485H1045Q1048 397 1072 332T1139 225T1239 161T1365 140Q1462 140 1555 162T1740 240L1760 75Q1707 48 1656 29T1554 -2T1451 -19T1340 -25Q1281 -25 1226 -13T1120 24T1027 86T950 172Q883 75 781 25T560 -25Q457 -25 372 9T225 111T129 278T95 507ZM280
507Q280 420 301 351T360 234T452 161T570 135Q630 135 683 160T775 234T837 351T860 507Q860 595 839 664T780 781T688 854T570 880Q509 880 456 855T364 781T303 664T280 507ZM1325 890Q1215 890 1145 826T1053 625H1575Q1575 689 1557 738T1505 822T1425 873T1325
890Z" />
<glyph unicode="&#x178;" glyph-name="Ydieresis" horiz-adv-x="1320" d="M733 1747T733 1775T742 1827T769 1870T809 1899T860 1910T911 1900T952 1871T978 1828T988 1775T979 1723T952 1680T912 1651T860 1640T809 1650T769 1679T743 1722ZM313 1747T313 1775T322
1827T349 1870T389 1899T440 1910T491 1900T532 1871T558 1828T568 1775T559 1723T532 1680T492 1651T440 1640T389 1650T349 1679T323 1722ZM265 1460L660 799L1035 1460H1265Q1221 1397 1187 1346T1125 1248T1070 1158T1015 1065L745 603V435Q745 287 747 174T760
0H540Q551 60 553 173T555 435V611L290 1065Q261 1114 234 1161T176 1256T112 1354T35 1460H265Z" />
<glyph unicode="&#x192;" glyph-name="florin" horiz-adv-x="730" d="M20 995H220V1170Q220 1395 311 1507T565 1620Q624 1620 681 1602T785 1550L739 1400Q701 1428 655 1444T565 1460Q526 1460 496 1447T446 1403T416 1326T405 1210V995H675V850H405V494Q405
348 404 227T403 25Q403 -115 377 -210T302 -362T184 -445T29 -470Q8 -470 -20 -466T-79 -453T-138 -433T-190 -405L-155 -240Q-139 -252 -115 -263T-63 -282T-10 -295T38 -300Q78 -300 111 -285T169 -236T206 -151T220 -25V850H20V995Z" />
<glyph unicode="&#x2c6;" glyph-name="circumflex" horiz-adv-x="870" d="M10 1170L350 1600H520L860 1170H710L435 1450L160 1170H10Z" />
<glyph unicode="&#x2c7;" glyph-name="caron" horiz-adv-x="850" d="M150 1600L425 1320L700 1600H850L510 1170H340L0 1600H150Z" />
<glyph unicode="&#x2d8;" glyph-name="breve" horiz-adv-x="750" d="M750 1550Q750 1477 724 1406T650 1277T532 1185T375 1150Q287 1150 218 1185T100 1277T26 1405T0 1550H120Q126 1499 148 1454T205 1375T282 1320T375 1300Q424 1300 467 1320T543 1374T598
1454T628 1550H750Z" />
<glyph unicode="&#x2d9;" glyph-name="dotaccent" horiz-adv-x="270" d="M0 1317T0 1345T10 1397T39 1440T82 1469T135 1480T187 1470T230 1441T259 1398T270 1345T260 1293T231 1250T188 1221T135 1210T83 1220T40 1249T11 1292Z" />
<glyph unicode="&#x2da;" glyph-name="ring" horiz-adv-x="430" d="M315 1340T315 1385T288 1457T215 1485T143 1458T115 1385T142 1313T215 1285T287 1312ZM0 1340T0 1385T16 1469T62 1537T131 1583T215 1600T299 1584T367 1538T413 1469T430 1385T414 1301T368
1233T299 1187T215 1170T131 1186T63 1232T17 1301Z" />
<glyph unicode="&#x2db;" glyph-name="ogonek" horiz-adv-x="445" d="M300 2Q222 -47 181 -94T140 -195Q140 -252 172 -283T260 -315Q276 -315 297 -310T339 -294T381 -271T415 -240L445 -340Q401 -384 349 -407T240 -430Q194 -430 151 -415T75 -373T21 -308T0
-225Q0 -147 41 -92T160 2H300Z" />
<glyph unicode="&#x2dc;" glyph-name="tilde" horiz-adv-x="710" d="M0 1205Q0 1251 13 1295T51 1375T111 1433T192 1455Q213 1455 233 1451T273 1440T316 1423T365 1403L414 1383Q435 1374 453 1368T488 1359T520 1355Q555 1355 577 1380T605 1440H710Q710 1392
697 1347T658 1267T595 1211T512 1190Q472 1190 432 1203T345 1238Q281 1267 252 1278Q218 1290 190 1290Q153 1290 131 1266T105 1205H0Z" />
<glyph unicode="&#x2dd;" glyph-name="hungarumlaut" horiz-adv-x="790" d="M790 1600L480 1150H340L580 1600H790ZM450 1600L140 1150H0L240 1600H450Z" />
<glyph unicode="&#x3a9;" glyph-name="uni03A9" horiz-adv-x="1613" d="M983 165Q1030 210 1083 272T1181 410T1255 578T1285 775Q1285 907 1248 1007T1145 1175T990 1276T795 1310Q696 1310 611 1274T463 1172T366 1011T330 800Q330 693 354 602T418 432T506
287T605 165V0H70V180Q91 176 128 174T213 169T316 166T428 165Q377 213 325 275T230 413T162 579T135 775Q135 946 190 1078T339 1300T553 1438T805 1485Q937 1485 1059 1441T1274 1312T1424 1100T1480 810Q1480 691 1450 594T1372 417T1266 276T1150 165Q1208
165 1265 166T1370 169T1457 173T1518 180V0H983V165Z" />
<glyph unicode="&#x3c0;" glyph-name="pi" horiz-adv-x="1317" d="M1035 875V400Q1035 327 1037 272T1046 170T1063 83T1090 0H895Q876 46 868 104T855 237Q853 271 853 315T851 409T850 514V875H450V0H265V875H60V1020H1240V875H1035Z" />
<glyph unicode="&#x2013;" glyph-name="endash" horiz-adv-x="1055" d="M80 705H975V555H80V705Z" />
<glyph unicode="&#x2014;" glyph-name="emdash" horiz-adv-x="1735" d="M80 705H1655V555H80V705Z" />
<glyph unicode="&#x2018;" glyph-name="quoteleft" horiz-adv-x="530" d="M435 1165Q430 1141 417 1123T384 1092T343 1072T300 1065Q270 1065 244 1076T198 1109T167 1161T155 1230Q155 1322 198 1412T330 1585L430 1545Q408 1523 385 1491T341 1422T308 1344T295
1265H435V1165Z" />
<glyph unicode="&#x2019;" glyph-name="quoteright" horiz-adv-x="545" d="M165 1485Q170 1509 183 1527T216 1558T257 1578T300 1585Q330 1585 356 1574T402 1541T433 1489T445 1420Q445 1328 402 1238T270 1065L170 1105Q192 1127 215 1159T259 1228T292 1306T305
1385H165V1485Z" />
<glyph unicode="&#x201a;" glyph-name="quotesinglbase" horiz-adv-x="760" d="M265 150Q270 174 283 192T316 223T357 243T400 250Q430 250 456 239T502 206T533 154T545 85Q545 -7 502 -97T370 -270L270 -230Q292 -208 315 -176T359 -107T392 -29T405 50H265V150Z" />
<glyph unicode="&#x201c;" glyph-name="quotedblleft" horiz-adv-x="1050" d="M485 1165Q480 1141 467 1123T434 1092T393 1072T350 1065Q320 1065 294 1076T248 1109T217 1161T205 1230Q205 1322 248 1412T380 1585L480 1545Q458 1523 435 1491T391 1422T358
1344T345 1265H485V1165ZM915 1165Q910 1141 897 1123T864 1092T823 1072T780 1065Q750 1065 724 1076T678 1109T647 1161T635 1230Q635 1322 678 1412T810 1585L910 1545Q888 1523 865 1491T821 1422T788 1344T775 1265H915V1165Z" />
<glyph unicode="&#x201d;" glyph-name="quotedblright" horiz-adv-x="1010" d="M635 1485Q640 1509 653 1527T686 1558T727 1578T770 1585Q800 1585 826 1574T872 1541T903 1489T915 1420Q915 1328 872 1238T740 1065L640 1105Q662 1127 685 1159T729 1228T762
1306T775 1385H635V1485ZM205 1485Q210 1509 223 1527T256 1558T297 1578T340 1585Q370 1585 396 1574T442 1541T473 1489T485 1420Q485 1328 442 1238T310 1065L210 1105Q232 1127 255 1159T299 1228T332 1306T345 1385H205V1485Z" />
<glyph unicode="&#x201e;" glyph-name="quotedblbase" horiz-adv-x="990" d="M645 150Q650 174 663 192T696 223T737 243T780 250Q810 250 836 239T882 206T913 154T925 85Q925 -7 882 -97T750 -270L650 -230Q672 -208 695 -176T739 -107T772 -29T785 50H645V150ZM215
150Q220 174 233 192T266 223T307 243T350 250Q380 250 406 239T452 206T483 154T495 85Q495 -7 452 -97T320 -270L220 -230Q242 -208 265 -176T309 -107T342 -29T355 50H215V150Z" />
<glyph unicode="&#x2020;" glyph-name="dagger" horiz-adv-x="1025" d="M590 835Q590 726 590 607T592 354T598 75T610 -235H415Q422 -72 426 74T432 354T434 606T435 835V915Q392 915 348 914T254 912T150 909T30 904V1069Q94 1066 149 1064T253 1062T346 1061T434
1060Q432 1172 429 1289T415 1510H610Q600 1406 596 1289T591 1060Q642 1060 686 1060T776 1061T874 1064T995 1069V904Q929 907 874 908T770 911T677 914T590 915V835Z" />
<glyph unicode="&#x2021;" glyph-name="daggerdbl" horiz-adv-x="1024" d="M435 325V915Q392 915 348 914T254 912T150 909T30 904V1069Q94 1066 149 1064T253 1062T346 1061T434 1060Q432 1175 428 1292T415 1510H610Q600 1410 597 1293T591 1060Q642 1060 686
1060T776 1061T874 1064T995 1069V904Q929 907 874 908T770 911T677 914T590 915V325Q641 325 685 325T775 326T874 329T995 334V169Q929 172 874 173T771 176T678 179T591 180Q593 72 597 -35T610 -235H415Q423 -143 427 -36T433 180Q390 180 346 179T253 177T149
174T30 169V334Q95 331 150 329T254 327T347 326T435 325Z" />
<glyph unicode="&#x2022;" glyph-name="bullet" horiz-adv-x="940" d="M250 733Q250 778 267 818T314 887T384 934T469 952Q514 952 554 935T624 888T672 818T690 733Q690 688 673 648T625 578T554 530T469 512Q424 512 384 529T315 577T268 648T250 733Z" />
<glyph unicode="&#x2026;" glyph-name="ellipsis" horiz-adv-x="1724" d="M1271 109Q1271 137 1281 161T1310 204T1352 232T1405 243Q1433 243 1457 233T1500 204T1528 162T1539 109Q1539 81 1529 57T1500 14T1458 -14T1405 -25Q1377 -25 1353 -15T1310 14T1282
56T1271 109ZM728 109Q728 137 738 161T767 204T809 232T862 243Q890 243 914 233T957 204T985 162T996 109Q996 81 986 57T957 14T915 -14T862 -25Q834 -25 810 -15T767 14T739 56T728 109ZM185 109Q185 137 195 161T224 204T266 232T319 243Q347 243 371 233T414
204T442 162T453 109Q453 81 443 57T414 14T372 -14T319 -25Q291 -25 267 -15T224 14T196 56T185 109Z" />
<glyph unicode="&#x2030;" glyph-name="perthousand" horiz-adv-x="2201" d="M2101 379Q2101 268 2079 191T2017 66T1922 -3T1801 -25Q1735 -25 1682 -4T1590 65T1532 187T1511 368Q1511 474 1533 550T1595 675T1690 747T1810 770Q1876 770 1929 748T2021 677T2080
555T2101 379ZM1936 366Q1936 441 1929 491T1905 573T1864 617T1805 630Q1772 630 1748 617T1708 575T1684 498T1676 381Q1676 306 1683 255T1707 173T1747 129T1805 115Q1837 115 1861 128T1902 171T1927 249T1936 366ZM690 1089Q690 978 668 901T606 776T511
707T390 685Q324 685 271 706T179 775T121 897T100 1078Q100 1184 122 1260T184 1385T279 1457T399 1480Q465 1480 518 1458T610 1387T669 1265T690 1089ZM525 1076Q525 1151 518 1201T494 1283T453 1327T394 1340Q361 1340 337 1327T297 1285T273 1208T265 1091Q265
1016 272 965T296 883T336 839T394 825Q426 825 450 838T491 881T516 959T525 1076ZM1239 1480L459 -25H291L1073 1480H1239ZM1426 379Q1426 268 1404 191T1342 66T1247 -3T1126 -25Q1060 -25 1007 -4T915 65T857 187T836 368Q836 474 858 550T920 675T1015 747T1135
770Q1201 770 1254 748T1346 677T1405 555T1426 379ZM1261 366Q1261 441 1254 491T1230 573T1189 617T1130 630Q1097 630 1073 617T1033 575T1009 498T1001 381Q1001 306 1008 255T1032 173T1072 129T1130 115Q1162 115 1186 128T1227 171T1252 249T1261 366Z"
/>
<glyph unicode="&#x2039;" glyph-name="guilsinglleft" horiz-adv-x="790" d="M513 0L75 512L510 1020H675L305 512L675 0H513Z" />
<glyph unicode="&#x203a;" glyph-name="guilsinglright" horiz-adv-x="790" d="M75 0L445 512L75 1020H240L675 512L237 0H75Z" />
<glyph unicode="&#x2044;" glyph-name="fraction" horiz-adv-x="1200" d="M1190 1600L161 -245H10L1040 1600H1190Z" />
<glyph unicode="&#x20ac;" glyph-name="Euro" horiz-adv-x="1200" d="M60 945H182Q213 1067 272 1159T408 1312T571 1404T746 1435Q797 1435 843 1429T934 1407T1025 1366T1122 1302L1065 1131Q1020 1171 981 1198T904 1242T828 1266T746 1273Q683 1273 625 1253T516
1191T428 1088T366 945H856L816 800H341Q338 762 338 722V698Q338 686 339 675H788L748 530H362Q382 452 417 386T500 271T608 194T737 166Q791 166 839 178T931 214T1017 269T1098 342L1136 157Q1095 118 1046 89T945 40T837 10T727 0Q618 0 525 36T359 141T237
308T166 530H20L60 675H153V698Q153 724 154 749T157 800H20L60 945Z" />
<glyph unicode="&#x2122;" glyph-name="trademark" horiz-adv-x="1665" d="M695 1460V1355Q662 1363 630 1365T560 1367H431V896Q431 815 433 753T442 657H313Q320 690 322 752T324 896V1367H194Q158 1367 126 1365T60 1355V1460H695ZM1373 1460H1497Q1503 1264
1510 1099Q1513 1029 1516 959T1522 828T1528 723T1535 657H1431L1415 1307L1191 657H1082L856 1308L840 657H735Q738 677 741 722T747 828T753 958T759 1099Q766 1264 773 1460H900L1136 770L1373 1460Z" />
<glyph unicode="&#x2202;" glyph-name="partialdiff" horiz-adv-x="1110" d="M825 630Q808 648 779 668T712 706T634 734T550 745Q481 745 426 717T333 640T275 530T255 400Q255 358 269 311T310 223T377 157T470 130Q542 130 601 167T705 270T780 429T825 630ZM1025
840Q1025 737 1010 633T965 433T890 254T785 108T648 11T480 -25Q386 -25 313 12T189 112T112 255T85 425Q85 505 105 571T159 688T236 778T326 841T419 878T505 890Q599 890 683 865T845 770Q848 799 849 827T850 885Q850 963 831 1038T770 1171T663 1264T505
1300Q475 1300 448 1296T394 1284T338 1262T275 1230L230 1380Q253 1394 283 1407T348 1431T421 1448T500 1455Q607 1455 687 1429T826 1357T923 1252T984 1123T1016 982T1025 840Z" />
<glyph unicode="&#x2206;" glyph-name="increment" horiz-adv-x="1288" d="M655 1095L220 150H1035L655 1095ZM0 0L685 1485L1290 0H0Z" />
<glyph unicode="&#x220f;" glyph-name="product" horiz-adv-x="1565" d="M1535 1460V1275Q1474 1286 1411 1290T1270 1295V430Q1270 281 1272 171T1285 0H1080V1295H470V0H265Q276 60 278 170T280 430V1295Q204 1295 142 1290T20 1275V1460H1535Z" />
<glyph unicode="&#x2211;" glyph-name="summation" horiz-adv-x="1230" d="M280 165H700Q763 165 828 166T951 169T1057 176T1135 185V0H75V130L501 750L105 1330V1460H1075V1275Q1045 1281 1007 1285T921 1291T814 1294T680 1295H340L710 751L280 165Z" />
<glyph unicode="&#x221a;" glyph-name="radical" horiz-adv-x="1200" d="M1180 1490L705 0H620L170 800L50 730L0 825L245 965L650 250L1085 1600H1325V1490H1180Z" />
<glyph unicode="&#x221e;" glyph-name="infinity" horiz-adv-x="1200" d="M1160 730Q1160 670 1138 621T1078 538T993 484T895 465Q859 465 822 472T747 495T672 538T600 605Q531 531 454 498T305 465Q249 465 201 486T117 545T61 629T40 730Q40 790 62 839T122
925T207 980T305 1000Q377 1000 454 963T600 845Q669 919 746 959T895 1000Q951 1000 999 978T1083 918T1139 831T1160 730ZM670 730Q695 693 723 667T780 623T835 598T885 590Q913 590 937 600T980 630T1009 674T1020 730Q1020 756 1010 780T981 823T938 853T885
865Q862 865 834 856T777 829T719 786T670 730ZM530 730Q504 767 476 793T420 837T364 862T315 870Q287 870 263 860T220 830T191 786T180 730Q180 704 190 680T219 636T262 606T315 595Q337 595 365 604T423 631T481 674T530 730Z" />
<glyph unicode="&#x222b;" glyph-name="integral'" horiz-adv-x="985" d="M615 1280Q607 1244 600 1171T587 1002T576 793T566 563T556 333T545 122T531 -49T515 -160Q494 -249 458 -308T380 -404T290 -455T200 -470Q142 -470 100 -452T25 -405L105 -255Q121 -278
149 -289T210 -300Q229 -300 248 -293T285 -266T320 -209T350 -110Q357 -76 363 -5T374 160T383 366T391 591T400 818T411 1025T424 1194T440 1305Q458 1378 490 1436T563 1535T653 1598T755 1620Q815 1620 868 1602T960 1545L860 1390Q847 1411 817 1428T755 1445Q724
1445 701 1430T661 1391T633 1338T615 1280Z" />
<glyph unicode="&#x2248;" glyph-name="approxequal" horiz-adv-x="1200" d="M1090 900Q1066 870 1033 846T964 805T888 779T810 770Q775 770 737 779T658 803T578 835T501 866T431 890T370 900Q307 900 240 863T110 750V915Q131 944 163 968T233 1009T311 1035T390
1045Q425 1045 463 1036T542 1012T622 980T699 949T769 925T830 915Q893 915 960 952T1090 1065V900ZM1090 530Q1066 500 1033 476T964 435T888 409T810 400Q775 400 737 409T658 433T578 465T501 496T431 520T370 530Q307 530 240 493T110 380V545Q131 574 163
598T233 639T311 665T390 675Q425 675 463 666T542 642T622 610T699 579T769 555T830 545Q893 545 960 582T1090 695V530Z" />
<glyph unicode="&#x2260;" glyph-name="notequal" horiz-adv-x="1200" d="M1005 1215L851 980H1075V830H752L621 630H1075V480H523L340 200H180L363 480H125V630H462L593 830H125V980H691L845 1215H1005Z" />
<glyph unicode="&#x2264;" glyph-name="lessequal" horiz-adv-x="1200" d="M1080 245L100 645V815L1080 1215V1035L290 730L1080 425V245ZM100 150H1080V0H100V150Z" />
<glyph unicode="&#x2265;" glyph-name="greaterequal" horiz-adv-x="1200" d="M120 150H1100V0H120V150ZM120 1215L1100 815V645L120 245V425L910 730L120 1035V1215Z" />
<glyph unicode="&#x25ca;" glyph-name="lozenge" horiz-adv-x="1025" d="M515 1455L190 825L515 145L835 825L515 1455ZM575 0H450L35 825L450 1600H575L995 825L575 0Z" />
<glyph unicode="&#xfb01;" glyph-name="fi" horiz-adv-x="1215" d="M805 1345Q805 1373 814 1397T841 1440T881 1469T932 1480Q960 1480 983 1470T1024 1441T1050 1398T1060 1345Q1060 1317 1051 1293T1024 1250T984 1221T932 1210Q904 1210 881 1220T841 1249T815
1292T805 1345ZM220 995V1170Q220 1395 311 1507T565 1620Q624 1620 681 1602T785 1550L739 1400Q701 1428 655 1444T565 1460Q526 1460 496 1447T446 1403T416 1326T405 1210V995H1025V475Q1025 427 1026 362T1030 229T1036 101T1045 0H840V850H405V494Q405 421
406 350T411 214T421 94T435 0H220V850H20V995H220Z" />
<glyph unicode="&#xfb02;" glyph-name="fl" horiz-adv-x="1215" d="M20 995H220V1140Q220 1264 250 1354T333 1504T458 1591T615 1620Q678 1620 735 1606T841 1567H1025V475Q1025 427 1026 362T1030 230T1036 102T1045 0H840V1391Q788 1429 733 1444T615 1460Q576
1460 539 1446T471 1399T423 1310T405 1172V995H625V850H405V494Q405 421 406 350T411 214T421 94T435 0H220V850H20V995Z" />
</font>
</defs>
</svg>
